<svg width="165" height="183" viewBox="0 0 165 183" fill="none" xmlns="http://www.w3.org/2000/svg">
<path d="M58.2217 160.165C60.2645 161.66 61.3913 163.166 61.6019 164.682C61.8757 166.83 60.4541 169.189 57.3371 171.759C55.6733 173.127 53.0618 174.539 49.5025 175.992C45.859 177.487 42.0997 178.666 38.2245 179.53C28.5577 181.678 22.5027 181.141 20.0597 177.919C17.9536 175.16 19.0488 172.074 23.3452 168.663C26.7359 165.967 31.1903 163.629 36.7082 161.649C40.0147 160.47 43.9425 159.67 48.4916 159.248C53.483 158.764 56.7264 159.069 58.2217 160.165Z" fill="#0D131A"/>
<path d="M58.0013 162.692C59.8547 164.924 59.4229 167.262 56.7061 169.705C54.4526 171.727 51.2093 173.422 46.9761 174.791C42.0689 176.392 38.0674 177.455 34.9715 177.982C30.0643 178.824 26.3471 178.624 23.8198 177.382H24.9255C32.9075 177.382 39.7101 175.897 45.3333 172.927C50.9776 169.937 53.7997 166.335 53.7997 162.123L53.6734 160.67C55.6531 160.902 57.0957 161.576 58.0013 162.692Z" fill="#D08690"/>
<path d="M53.6728 160.67L53.7991 162.123C53.7991 166.336 50.977 169.937 45.3327 172.928C39.7095 175.897 32.9069 177.382 24.9249 177.382H23.8192L22.9663 176.908C20.5232 175.328 21.2393 172.949 25.1145 169.768C28.421 167.031 31.6012 165.24 34.655 164.398L43.7848 161.807C47.9759 160.776 51.2719 160.396 53.6728 160.67Z" fill="#F09BA5"/>
<path d="M117.171 159.28C121.678 159.722 125.595 160.544 128.923 161.744C134.462 163.703 138.958 166.04 142.412 168.757C146.772 172.19 147.835 175.244 145.603 177.919C143.223 180.741 137.926 181.467 129.713 180.098C122.194 178.835 115.834 176.623 110.632 173.464C106.588 171.021 104.513 168.441 104.408 165.725C104.324 163.576 105.356 161.723 107.504 160.165C108.999 159.069 112.222 158.774 117.171 159.28Z" fill="#0D131A"/>
<path d="M107.503 162.692C108.43 161.576 109.883 160.902 111.863 160.67L111.737 162.123C111.737 166.335 114.559 169.937 120.203 172.927C125.826 175.897 132.629 177.382 140.611 177.382H141.717C139.189 178.624 135.472 178.824 130.565 177.982C127.469 177.455 123.467 176.392 118.56 174.791C114.327 173.422 111.084 171.727 108.83 169.705C106.113 167.262 105.671 164.924 107.503 162.692Z" fill="#D08690"/>
<path d="M111.737 162.123L111.864 160.67C114.265 160.396 117.561 160.776 121.752 161.807L130.881 164.398C133.935 165.24 137.115 167.031 140.422 169.768C144.297 172.949 145.013 175.328 142.57 176.908L141.717 177.382H140.612C132.63 177.382 125.827 175.897 120.204 172.928C114.559 169.937 111.737 166.336 111.737 162.123Z" fill="#F09BA5"/>
<path d="M158.018 25.3343C158.819 26.9981 157.681 29.1989 154.606 31.9368C153.596 32.8424 152.184 33.569 150.373 34.1166C148.415 34.7273 146.435 34.9801 144.434 34.8748C151.216 37.5074 156.491 39.308 160.261 40.2768C163.294 41.0561 164.842 42.7199 164.905 45.2682C164.968 47.8587 163.357 49.4698 160.072 50.1017L154.922 50.4492L149.204 49.7857L153.501 52.7237L157.007 55.5037C158.103 56.5568 158.734 57.8836 158.903 59.4842C159.05 61.0427 158.724 62.2853 157.924 63.2119C156.976 64.286 155.86 64.96 154.575 65.2338C153.269 65.5075 151.9 65.3496 150.468 64.7599L152.332 68.2981C153.848 71.3308 155.228 74.4794 156.47 77.7438C160.472 88.232 162.473 98.0358 162.473 107.155C162.473 130.217 154.68 147.507 139.095 159.028C125.364 169.2 106.588 174.286 82.7685 174.286C59.9176 174.286 41.4895 169.284 27.4841 159.28C11.12 147.571 2.9379 130.185 2.9379 107.123C2.9379 98.0253 5.06503 88.1899 9.31929 77.6174C10.6461 74.3109 12.1098 71.1308 13.7104 68.077L15.7007 64.5072C14.3528 65.0969 12.9944 65.3496 11.6254 65.2654C10.0669 65.16 8.77171 64.623 7.73974 63.6542C6.79201 62.7486 6.37079 61.5376 6.4761 60.0212C6.5814 58.4417 7.23428 57.0201 8.43474 55.7564C9.38247 54.7666 10.6882 53.682 12.352 52.5026C13.9105 51.3864 15.2163 50.5755 16.2693 50.0701C12.0572 50.8704 8.3505 50.8704 5.14927 50.0701C1.71638 49.2276 0.147359 47.5638 0.442209 45.0787C0.737058 42.6356 2.56934 40.9824 5.93905 40.1189C9.03497 39.3186 13.9842 37.7074 20.7868 35.2855L17.1855 34.7484C14.3844 34.0534 12.0361 32.874 10.1407 31.2102C8.03459 29.3358 7.32905 27.5141 8.02406 25.745C8.74012 23.9548 10.5724 23.165 13.5209 23.3756C17.5224 23.6705 22.5138 23.4178 28.4951 22.6175C35.9927 21.6065 41.6264 19.9954 45.3962 17.784C46.3019 17.2575 48.1552 15.857 50.9563 13.5824C53.9048 11.2236 56.4742 9.37028 58.6645 8.02239C66.2042 3.36798 74.5443 1.04077 83.6846 1.04077C92.6775 1.04077 100.712 3.27321 107.789 7.73807C109.916 9.0649 112.38 10.8972 115.181 13.2349C118.003 15.6148 119.867 17.089 120.772 17.6577C124.416 20.0165 129.923 21.6908 137.295 22.6806C143.002 23.4599 147.93 23.6915 152.079 23.3756C155.323 23.144 157.302 23.7968 158.018 25.3343Z" fill="#0D131A"/>
<path d="M137.673 24.1651L139.979 24.4494C140.759 25.6709 141.148 26.9767 141.148 28.3667C141.148 29.3355 140.622 30.7149 139.569 32.5051C137.105 31.4942 133.598 29.5987 129.049 26.8187C128.228 26.3133 127.722 26.1027 127.533 26.1869C127.343 26.2501 127.617 26.6397 128.354 27.3558C129.302 28.3035 130.902 29.4618 133.156 30.8308C136.294 32.7262 140.169 34.6744 144.781 36.6751C145.181 37.6018 145.381 38.5601 145.381 39.5499C145.381 40.4766 145.16 41.4243 144.718 42.3931C144.297 43.3198 143.76 44.1095 143.107 44.7624C138.895 41.5191 135.441 38.3389 132.745 35.2219C131.903 34.2531 131.313 33.8003 130.976 33.8635C130.639 33.9056 130.965 34.6217 131.955 36.0117C132.882 37.3175 134.282 38.9076 136.157 40.782C138.158 42.7827 140.306 44.7098 142.601 46.5631C142.517 48.1637 141.875 49.5748 140.674 50.7963C139.537 51.9757 138.147 52.7234 136.504 53.0393L132.713 49.9434L130.376 47.9531C129.365 46.858 128.659 46.342 128.259 46.4052C127.859 46.4683 128.27 47.2371 129.491 48.7113C130.628 50.0592 132.882 52.2074 136.252 55.1559C140.78 59.1364 144.76 62.1059 148.193 64.0646L152.11 71.8991C155.017 78.5333 157.165 85.3675 158.555 92.4017C159.397 103.922 157.913 114.579 154.101 124.372C150.499 133.596 145.013 141.621 137.642 148.444C130.544 155.036 122.162 160.101 112.495 163.64C102.849 167.178 92.6349 168.947 81.8519 168.947C66.6039 168.947 53.0514 166.388 41.1942 161.27C28.7052 155.879 18.9015 147.96 11.783 137.514C7.48657 129.258 5.33838 119.275 5.33838 107.565C5.33838 98.3619 7.46551 88.2528 11.7198 77.238C13.0255 73.7841 14.4787 70.4565 16.0793 67.2553L18.0696 63.4643C21.5867 61.4636 25.4303 58.6098 29.6003 54.9032C32.97 51.9336 35.0761 49.8591 35.9185 48.6797C37.1611 46.8896 37.5402 46.0471 37.0558 46.1524C36.6135 46.2367 35.8448 46.8685 34.7496 48.0479C33.6334 49.2062 31.6853 50.9543 28.9053 53.292C27.3047 52.9972 25.9357 52.2284 24.7985 50.9859C23.6401 49.7222 23.0188 48.2796 22.9346 46.6579C25.1249 44.8888 27.2626 42.9196 29.3476 40.7504C31.0956 38.897 32.4751 37.2648 33.486 35.8538C34.4969 34.4637 34.7496 33.7582 34.2442 33.7372C33.7387 33.7161 33.0964 34.211 32.3171 35.2219C29.3265 39.0339 26.1358 42.2562 22.745 44.8888C22.05 44.1727 21.4603 43.3619 20.9759 42.4563C20.4284 41.4032 20.1546 40.4345 20.1546 39.5499C20.1546 38.5601 20.3547 37.6018 20.7548 36.6751C25.346 34.6954 29.1791 32.7473 32.2539 30.8308C34.4021 29.504 35.9817 28.3351 36.9926 27.3242C37.7087 26.6081 37.9087 26.2185 37.5928 26.1553C37.2769 26.0711 36.7188 26.3027 35.9185 26.8503C33.8756 28.2824 31.9064 29.4934 30.011 30.4833C28.8105 31.1151 27.3889 31.768 25.7462 32.4419C24.8406 30.9045 24.3878 29.5461 24.3878 28.3667C24.3878 26.9767 24.7774 25.6709 25.5566 24.4494L27.8312 24.1651C32.4224 23.5543 36.2344 22.7856 39.2672 21.8589C42.005 21.0376 44.4165 19.974 46.5015 18.6682L52.6618 14.2139C55.5471 12.0236 58.0744 10.3071 60.2436 9.06455C67.2358 5.06302 75.1019 3.06226 83.8421 3.06226C92.7297 3.06226 100.754 5.30522 107.914 9.79115C109.999 11.0758 112.358 12.8134 114.991 15.0037C117.476 17.0466 119.066 18.2681 119.761 18.6682C122.12 20.0161 124.416 21.0586 126.648 21.7957C129.618 22.8067 133.293 23.5964 137.673 24.1651Z" fill="#F6C8D6"/>
<path d="M154.101 124.372C157.913 114.579 159.398 103.922 158.555 92.402C159.65 97.8146 160.198 102.869 160.198 107.566C160.198 130.164 152.3 146.96 136.505 157.953C123.194 167.199 105.282 171.822 82.7683 171.822C66.8464 171.822 52.8094 169.094 40.6574 163.64C27.326 157.637 17.7013 148.929 11.7832 137.514C18.9017 147.96 28.7055 155.879 41.1945 161.27C53.0516 166.388 66.6042 168.947 81.8521 168.947C92.6352 168.947 102.85 167.178 112.495 163.64C122.162 160.102 130.544 155.036 137.642 148.444C145.013 141.621 150.499 133.597 154.101 124.372Z" fill="#D5ADBA"/>
<path d="M22.9357 46.6578C23.0199 48.2795 23.6412 49.7222 24.7995 50.9858C25.9368 52.2284 27.3058 52.9971 28.9064 53.292C27.0952 54.8083 24.1256 56.9986 19.9977 59.8629C17.2388 61.7584 14.901 62.8324 12.9845 63.0852C11.5734 63.2537 10.4361 62.9588 9.57266 62.2006C8.75129 61.4635 8.40379 60.5579 8.53016 59.4838C8.63546 58.3886 9.19357 57.304 10.2045 56.2299C10.9627 55.4296 12.0684 54.5135 13.5215 53.4815L19.9977 48.9008L22.9357 46.6578Z" fill="#F09BA5"/>
<path d="M20.9766 42.4563C21.461 43.3619 22.0507 44.1728 22.7457 44.8888C20.7028 46.4895 18.9442 47.6689 17.47 48.427L11.4677 49.122C8.89826 49.2063 6.89749 48.9746 5.46536 48.427C3.65415 47.711 2.74854 46.6158 2.74854 45.1416C2.74854 43.6252 3.74892 42.5827 5.74968 42.0141L10.6147 40.5609C12.9735 39.8027 15.4903 38.8655 18.165 37.7493L20.7554 36.6752C20.3553 37.6018 20.1552 38.5601 20.1552 39.55C20.1552 40.4345 20.429 41.4033 20.9766 42.4563Z" fill="#F09BA5"/>
<path d="M13.3944 25.018L17.5644 25.1759L25.5569 24.4493C24.7777 25.6709 24.3881 26.9766 24.3881 28.3666C24.3881 29.546 24.8409 30.9044 25.7465 32.4419C23.5141 33.3685 21.8081 33.7792 20.6287 33.6739L15.9849 32.9157C14.3421 32.3892 12.8679 31.4836 11.5621 30.1989C10.1932 28.83 9.79301 27.5769 10.3617 26.4396C10.8882 25.3655 11.8991 24.8916 13.3944 25.018Z" fill="#F09BA5"/>
<path d="M155.333 56.2301C156.28 57.0936 156.828 58.1256 156.975 59.326C157.102 60.5265 156.765 61.4847 155.964 62.2008C155.08 62.98 153.932 63.3065 152.521 63.1801C150.583 63.0116 148.235 61.9797 145.476 60.0842C143.286 58.5889 140.295 56.2406 136.504 53.0394C138.147 52.7235 139.537 51.9758 140.674 50.7964C141.875 49.5749 142.517 48.1638 142.601 46.5632L145.539 48.8062C150.215 52.1548 153.479 54.6295 155.333 56.2301Z" fill="#F09BA5"/>
<path d="M155.459 25.7446C156.217 26.4396 156.101 27.4716 155.112 28.8405C153.49 31.094 151.089 32.5472 147.909 33.2001C144.939 33.8108 142.159 33.5791 139.569 32.5051C140.622 30.7149 141.148 29.3354 141.148 28.3666C141.148 26.9766 140.759 25.6709 139.98 24.4493L147.972 25.1759L152.142 25.018C153.701 24.8916 154.806 25.1338 155.459 25.7446Z" fill="#F09BA5"/>
<path d="M154.891 40.5609L159.787 42.0141C161.957 42.6248 162.915 43.8253 162.662 45.6154C162.41 47.3845 161.241 48.3744 159.156 48.585C154.691 49.0694 150.826 48.922 147.562 48.1427L143.107 44.7625C143.76 44.1096 144.297 43.3198 144.719 42.3931C145.161 41.4244 145.382 40.4766 145.382 39.55C145.382 38.5601 145.182 37.6018 144.782 36.6752L147.341 37.7493C150.015 38.8655 152.532 39.8027 154.891 40.5609Z" fill="#F09BA5"/>
<path d="M70.1325 31.5892C69.2901 31.5892 68.5845 31.0627 68.0159 30.0096C67.4262 28.9566 67.1313 27.6824 67.1313 26.1871C67.1313 24.6918 67.4262 23.4176 68.0159 22.3646C68.5845 21.3116 69.2901 20.785 70.1325 20.785C70.9539 20.785 71.6594 21.3116 72.2491 22.3646C72.8388 23.4387 73.1336 24.7129 73.1336 26.1871C73.1336 27.6824 72.8388 28.9566 72.2491 30.0096C71.6594 31.0627 70.9539 31.5892 70.1325 31.5892Z" fill="#0D131A"/>
<path d="M70.132 26.8507C69.774 26.8507 69.4581 26.5979 69.1843 26.0925C68.9315 25.587 68.8052 24.9868 68.8052 24.2918C68.8052 23.5757 68.9315 22.9755 69.1843 22.4911C69.4581 21.9856 69.774 21.7329 70.132 21.7329C70.49 21.7329 70.7954 21.9856 71.0481 22.4911C71.3009 22.9755 71.4272 23.5757 71.4272 24.2918C71.4272 24.9868 71.3009 25.587 71.0481 26.0925C70.7954 26.5979 70.49 26.8507 70.132 26.8507Z" fill="white"/>
<path d="M67.8568 62.2009C65.4559 63.4645 63.929 64.307 63.2761 64.7282C61.7808 65.6549 60.9278 65.9708 60.7172 65.6759C60.5066 65.3811 61.149 64.7598 62.6443 63.812C65.5717 61.9587 68.9204 59.979 72.6902 57.8729C74.333 56.9463 75.9546 56.525 77.5552 56.6093C79.0506 56.6725 80.3037 57.1569 81.3146 58.0625C83.526 60.1264 83.5681 63.4435 81.4409 68.0137C80.3669 70.3093 78.7873 72.7944 76.7023 75.4691C74.9332 77.7437 73.5011 79.3127 72.4059 80.1762C71.4792 80.9554 70.8158 81.2819 70.4157 81.1555C69.9945 81.0081 70.3104 80.4395 71.3634 79.4496C72.5639 78.3544 74.1118 76.5116 76.0073 73.9212C78.0291 71.1833 79.3349 69.0562 79.9246 67.5398C80.5985 65.8549 80.946 64.2543 80.9671 62.7379C80.9671 61.0952 80.5564 59.9369 79.735 59.2629C77.9028 57.7887 75.6703 57.8308 73.0377 59.3893L67.8568 62.2009Z" fill="#0D131A"/>
<path d="M104.723 98.3726C110.747 106.291 113.758 115.274 113.758 125.32C113.758 134.881 110.705 142.632 104.597 148.571C98.7421 154.278 91.4025 157.132 82.578 157.132C73.7957 157.132 66.4982 154.257 60.6854 148.508C54.6621 142.547 51.6504 134.776 51.6504 125.193C51.6504 115.19 54.7042 106.228 60.8118 98.3094C67.0879 90.18 74.4275 86.1152 82.8307 86.1152C91.2129 86.1152 98.5104 90.201 104.723 98.3726Z" fill="#0D131A"/>
<path d="M103.398 99.7624C109.295 107.386 112.243 115.905 112.243 125.32C112.243 134.291 109.305 141.621 103.429 147.307C97.827 152.741 90.9402 155.457 82.7686 155.457C74.6182 155.457 67.7629 152.72 62.2029 147.244C56.3691 141.536 53.4521 134.186 53.4521 125.193C53.4521 115.779 56.3585 107.281 62.1713 99.6992C68.1104 91.9278 74.9551 88.0421 82.7055 88.0421C90.4768 88.0421 97.3742 91.9489 103.398 99.7624Z" fill="#FFFBDA"/>
<path d="M95.405 31.5892C94.5836 31.5892 93.8781 31.0627 93.2884 30.0096C92.6987 28.9566 92.4038 27.6824 92.4038 26.1871C92.4038 24.7129 92.6987 23.4387 93.2884 22.3646C93.8781 21.3116 94.5836 20.785 95.405 20.785C96.2474 20.785 96.9529 21.3116 97.5216 22.3646C98.1112 23.4176 98.4061 24.6918 98.4061 26.1871C98.4061 27.6824 98.1112 28.9566 97.5216 30.0096C96.9529 31.0627 96.2474 31.5892 95.405 31.5892Z" fill="#0D131A"/>
<path d="M95.4046 26.8507C95.0466 26.8507 94.7412 26.5979 94.4885 26.0925C94.2357 25.587 94.1094 24.9868 94.1094 24.2918C94.1094 23.5757 94.2357 22.9755 94.4885 22.4911C94.7412 21.9856 95.0466 21.7329 95.4046 21.7329C95.7626 21.7329 96.0786 21.9856 96.3523 22.4911C96.6051 22.9755 96.7314 23.5757 96.7314 24.2918C96.7314 24.9868 96.6051 25.587 96.3523 26.0925C96.0786 26.5979 95.7626 26.8507 95.4046 26.8507Z" fill="white"/>
<path d="M102.861 64.0332C104.377 64.9809 104.956 65.6338 104.598 65.9918C104.24 66.3498 103.345 66.0023 101.913 64.9493C100.565 64.0016 97.4269 62.1482 92.4987 59.3893C91.1718 58.6311 89.9503 58.2099 88.8341 58.1256C87.5283 58.0414 86.4542 58.3889 85.6118 59.1681C84.7483 59.9474 84.3482 61.1373 84.4114 62.7379C84.4535 64.1701 84.8642 65.8023 85.6434 67.6345C86.2542 69.0877 87.6126 71.1727 89.7187 73.8896C91.6141 76.3116 93.1937 78.1122 94.4573 79.2916C95.5314 80.2815 95.8368 80.8291 95.3735 80.9344C94.9312 81.0186 94.2467 80.6816 93.32 79.9235C92.0564 78.8704 90.5927 77.3751 88.9289 75.4375C86.7386 72.8681 85.1169 70.4672 84.0639 68.2348C82.9266 65.7917 82.4001 63.6435 82.4843 61.7902C82.5475 60.1264 83.0845 58.8206 84.0954 57.8729C85.0642 57.0094 86.4016 56.5882 88.1075 56.6093C89.8134 56.6514 91.4456 57.1147 93.0041 57.9993C95.5735 59.4525 98.859 61.4638 102.861 64.0332Z" fill="#0D131A"/>
<path d="M77.019 36.138C76.2187 36.0116 75.7238 35.78 75.5342 35.443C75.3447 35.1271 75.4816 34.9691 75.9449 34.9691L78.7565 35.1903L82.7686 35.3798L89.3079 35.0007C89.8134 35.0007 89.9924 35.1587 89.8449 35.4746C89.6975 35.7905 89.2868 35.98 88.6129 36.0432C88.4655 37.8755 87.9495 39.3919 87.0649 40.5923C85.9908 42.0455 84.5166 42.7721 82.6422 42.7721C80.7678 42.7721 79.3041 41.9191 78.251 40.2132C77.4297 38.9075 77.019 37.549 77.019 36.138Z" fill="#0D131A"/>
<path d="M86.5593 39.392C85.4852 38.8233 84.1794 38.4969 82.642 38.4126C81.1467 38.3284 79.8094 38.4969 78.63 38.9181C78.0824 37.8861 77.8086 37.0016 77.8086 36.2645L82.6736 36.454L87.6966 36.1697C87.6966 37.1595 87.3175 38.2336 86.5593 39.392Z" fill="#922F00"/>
<path d="M78.6304 38.9182C79.8098 38.497 81.1471 38.3285 82.6424 38.4128C84.1799 38.497 85.4856 38.8235 86.5597 39.3921C85.5278 40.9506 84.1693 41.7298 82.4845 41.7298C80.8839 41.7298 79.5992 40.7926 78.6304 38.9182Z" fill="#ED8599"/>
<path d="M114.296 119.665L114.644 121.308C114.875 122.635 114.991 123.898 114.991 125.099C114.991 135.061 111.748 143.264 105.261 149.708C99.0483 155.858 91.5191 158.933 82.6736 158.933C73.449 158.933 65.7619 155.637 59.6121 149.045C53.4413 142.453 50.356 134.239 50.356 124.404C50.356 123.203 50.4823 122.013 50.735 120.834L51.1141 119.412C54.4417 121.118 59.907 122.372 67.5099 123.172L82.6736 123.962L97.8689 123.298C105.514 122.561 110.99 121.35 114.296 119.665Z" fill="#0D131A"/>
<path d="M81.4735 152.709C88.8237 152.709 95.4262 150.498 101.281 146.075C107.01 141.715 110.906 136.092 112.97 129.205C112.043 136.956 108.726 143.442 103.019 148.666C97.248 153.91 90.498 156.532 82.7688 156.532C77.2719 156.532 72.1542 155.121 67.4155 152.298C62.8243 149.561 59.1913 145.843 56.5166 141.147C59.5915 144.748 63.256 147.56 67.5103 149.582C71.912 151.667 76.5664 152.709 81.4735 152.709Z" fill="#D08690"/>
<path d="M112.97 122.129C113.117 123.245 113.191 124.34 113.191 125.414L112.97 129.205C110.906 136.092 107.01 141.715 101.281 146.075C95.4263 150.498 88.8238 152.709 81.4736 152.709C76.5665 152.709 71.9121 151.666 67.5104 149.581C63.2561 147.56 59.5916 144.748 56.5167 141.147C53.7367 136.324 52.3467 131.08 52.3467 125.414C52.3467 124.34 52.4204 123.245 52.5678 122.129C55.411 123.119 59.8653 123.982 65.9308 124.719L82.7689 125.793L99.6069 124.719C105.672 123.982 110.127 123.119 112.97 122.129Z" fill="#F09BA5"/>
<path d="M78.0298 38.6656C79.6094 37.9916 81.0731 37.6757 82.421 37.7178C84.0637 37.781 85.6433 38.2865 87.1596 39.2342C87.3702 39.3606 87.3808 39.5396 87.1912 39.7712C87.0017 39.9819 86.8121 40.0345 86.6226 39.9292C85.4642 39.2342 84.0532 38.8656 82.3894 38.8235C80.7677 38.7603 79.4093 38.992 78.3141 39.5185C78.0614 39.6238 77.8824 39.5396 77.7771 39.2658C77.6507 39.0131 77.735 38.813 78.0298 38.6656Z" fill="#0D131A"/>
</svg>
