<svg width="59" height="75" viewBox="0 0 59 75" fill="none" xmlns="http://www.w3.org/2000/svg">
<path d="M29.1111 74.8571C21.0016 74.8571 14.1224 72.0327 8.47341 66.3837C2.82447 60.7348 0 53.8556 0 45.746C0 40.409 0.88373 35.0373 2.65119 29.631C4.41865 24.2246 6.70595 19.3208 9.5131 14.9194C12.3202 10.5181 15.4566 6.93122 18.9222 4.15873C22.3878 1.38624 25.7841 0 29.1111 0C32.5074 0 35.921 1.38624 39.352 4.15873C42.7829 6.93122 45.902 10.5181 48.7091 14.9194C51.5163 19.3208 53.8036 24.2246 55.571 29.631C57.3385 35.0373 58.2222 40.409 58.2222 45.746C58.2222 53.8556 55.3978 60.7348 49.7488 66.3837C44.0999 72.0327 37.2206 74.8571 29.1111 74.8571ZM29.1111 70.6984C36.0146 70.6984 41.8992 68.2656 46.7649 63.3998C51.6306 58.5341 54.0635 52.6495 54.0635 45.746C54.0635 41.1714 53.2837 36.4409 51.7242 31.5544C50.1647 26.6679 48.1486 22.2029 45.676 18.1595C43.2032 14.1161 40.5001 10.7718 37.5664 8.12657C34.6327 5.48135 31.8143 4.15873 29.1111 4.15873C26.4079 4.15873 23.5835 5.45833 20.6377 8.05754C17.6919 10.6567 14.9888 13.9837 12.5282 18.0385C10.0676 22.0933 8.05754 26.5812 6.49802 31.5024C4.93849 36.4235 4.15873 41.1714 4.15873 45.746C4.15873 52.6495 6.59159 58.5341 11.4573 63.3998C16.323 68.2656 22.2076 70.6984 29.1111 70.6984Z" fill="white" fill-opacity="0.3"/>
</svg>
