<svg width="37" height="37" viewBox="0 0 37 37" fill="none" xmlns="http://www.w3.org/2000/svg">
<g clip-path="url(#clip0_7_455)">
<path d="M17.2522 36.7305C16.3624 36.6587 15.0993 36.3788 13.9654 35.9985C7.52102 33.8456 2.78458 28.3269 1.6507 21.66C1.56459 21.1792 1.5 20.6696 1.5 20.5405V20.2965H1.95929C2.21047 20.2965 2.96399 20.3611 3.6314 20.44C5.87044 20.7055 9.48736 20.9998 11.7551 21.1002C12.0135 21.1146 12.1642 21.1576 12.2 21.2294C12.2288 21.2868 12.3651 21.5882 12.5086 21.8896C13.5779 24.2363 16.0035 25.8295 18.5081 25.8295C20.6323 25.8295 22.7637 24.6597 24.0268 22.7939C24.2564 22.4422 24.7014 21.5595 24.7731 21.3084C24.8162 21.1289 24.8664 21.1218 27.2275 20.9782C30.0622 20.8132 32.6385 20.562 35.4373 20.1817C36.1621 20.0884 36.7649 20.0166 36.7793 20.0309C36.8367 20.0812 36.5066 22.0403 36.3128 22.8441C34.5187 30.1497 28.3542 35.654 20.8763 36.6157C19.8142 36.752 18.1637 36.8094 17.2522 36.7305Z" fill="#E6E9ED"/>
<path d="M17.5685 22.3848C16.8007 22.2269 15.8677 21.4518 15.5233 20.6983C15.43 20.4902 15.308 20.0524 15.2649 19.7367C14.9491 17.5766 16.3557 15.9188 18.5086 15.9188C19.5205 15.9188 20.231 16.1987 20.8769 16.8446C21.3936 17.3613 21.6447 17.8708 21.7524 18.6315C21.9246 19.8587 21.5945 20.8777 20.7764 21.6456C20.1449 22.2341 19.7358 22.3848 18.6522 22.4135C18.2001 22.4278 17.7121 22.4207 17.5685 22.3848Z" fill="#E6E9ED"/>
<path d="M17.8851 36.7518C17.7416 36.6944 17.7775 36.5868 17.9354 36.5868C18.0143 36.5868 18.0789 36.637 18.0789 36.6944C18.0789 36.8021 18.0358 36.8164 17.8851 36.7518Z" fill="#CFD2D6"/>
<path d="M16.069 36.6156C12.0717 36.0702 8.42609 34.2617 5.55552 31.384C2.69213 28.5278 0.941085 25.04 0.352618 21.0212C0.273677 20.4902 0.223443 20.0452 0.237795 20.0309C0.252148 20.0165 0.682734 20.0596 1.20661 20.1314C2.01037 20.239 2.14672 20.2749 2.14672 20.3825C2.14672 20.4758 2.08931 20.5117 1.93143 20.5117C1.68026 20.5117 1.68026 20.3969 1.93861 21.8035C2.77825 26.4107 5.52682 30.6592 9.43797 33.3934C11.8062 35.0583 14.4543 36.1061 17.4182 36.551C17.5832 36.5797 17.7196 36.63 17.7196 36.6658C17.7196 36.7591 16.9517 36.7304 16.069 36.6156Z" fill="#CFD2D6"/>
<path d="M17.7202 22.313C17.7202 22.2412 17.7848 22.1623 17.8637 22.1407C17.9427 22.1192 18.0073 22.1336 18.0073 22.1694C18.0073 22.2053 18.0575 22.234 18.1149 22.234C18.1723 22.234 18.2226 22.2843 18.2226 22.3417C18.2226 22.4134 18.1436 22.4493 17.9714 22.4493C17.7704 22.4493 17.7202 22.4206 17.7202 22.313Z" fill="#CFD2D6"/>
<path d="M18.6528 22.3417C18.6528 22.2843 18.6959 22.234 18.7533 22.234C18.8107 22.234 18.8681 22.1982 18.8825 22.1551C18.9255 22.0187 19.2987 22.1623 19.2987 22.313C19.2987 22.4278 19.2413 22.4493 18.9758 22.4493C18.7389 22.4493 18.6528 22.4206 18.6528 22.3417Z" fill="#CFD2D6"/>
<path d="M24.8965 21.3513V21.0858H25.2912C25.5926 21.0858 25.6859 21.1073 25.6859 21.1935C25.6859 21.2509 25.6428 21.3011 25.5998 21.3083C25.2625 21.3226 25.0687 21.38 24.9898 21.4877C24.9108 21.6025 24.8965 21.581 24.8965 21.3513Z" fill="#CFD2D6"/>
<path d="M11.3191 21.3155C11.2474 21.3011 11.1899 21.2437 11.1899 21.1863C11.1899 21.1145 11.2904 21.0858 11.5846 21.0858C11.9148 21.0858 11.9793 21.1073 11.9793 21.215C11.9793 21.3083 11.9219 21.337 11.7138 21.337C11.5631 21.337 11.3837 21.3298 11.3191 21.3155Z" fill="#CFD2D6"/>
<path d="M35.0793 16.7083C35.0003 16.6652 34.9429 16.493 34.9142 16.1916C34.7348 14.5482 34.0244 12.1943 33.1919 10.5079C31.1466 6.35273 27.6445 3.13051 23.3387 1.45123C22.2909 1.035 21.0279 0.676176 20.0662 0.518295C19.4275 0.410649 19.2983 0.36759 19.2983 0.259944C19.2983 0.0948861 19.6141 0.0877097 20.8197 0.245591C24.1855 0.676176 27.3862 2.0397 30.063 4.1998C30.8452 4.82415 32.1154 6.09438 32.7398 6.87661C34.5698 9.15153 35.9333 12.0221 36.4787 14.7707C36.6438 15.5888 36.7658 16.5576 36.7155 16.615C36.572 16.7514 35.2802 16.8303 35.0793 16.7083Z" fill="#F17783"/>
<path d="M10.436 17.6627C7.78792 17.5336 1.65925 16.9092 1.55878 16.7513C1.30761 16.3782 1.87455 13.5148 2.54195 11.7207C4.47241 6.57517 8.67062 2.50614 13.8663 0.747912C15.2227 0.288621 17.7847 -0.00561207 19.1697 0.137916C22.1408 0.439326 25.363 1.73826 27.9321 3.66872C30.9032 5.90058 33.1853 9.07256 34.3263 12.5531C34.7139 13.7157 35.0296 15.0936 35.1301 15.9835C35.1731 16.3997 35.1947 16.4499 35.3813 16.5217C35.4961 16.5647 35.5894 16.6509 35.5894 16.7155C35.5894 16.8087 35.4889 16.8375 35.0727 16.8733C34.7856 16.8949 33.9819 16.981 33.2929 17.0599C31.1113 17.3111 28.7072 17.512 25.7864 17.6771L24.9826 17.7273L24.8247 17.2322C23.9205 14.4836 21.2222 12.5172 18.366 12.5316C17.9928 12.5316 17.5909 12.5675 17.4833 12.6105C17.3684 12.6536 17.189 12.6895 17.0814 12.6895C16.9737 12.6895 16.8661 12.711 16.8374 12.7325C16.8159 12.7612 16.536 12.8832 16.2274 13.0052C14.3256 13.7731 12.8401 15.3161 12.2229 17.1604L12.0364 17.713L11.491 17.6986C11.1895 17.6914 10.7159 17.6771 10.436 17.6627Z" fill="#E60012"/>
<path d="M10.9736 17.5694C10.9736 17.4546 11.0095 17.433 11.1459 17.4546C11.2463 17.4689 11.3396 17.4474 11.3612 17.4043C11.397 17.3397 11.4114 17.3397 11.4473 17.4115C11.4688 17.4546 11.5334 17.4976 11.5908 17.4976C11.6482 17.4976 11.6913 17.5479 11.6913 17.6053C11.6913 17.6842 11.6052 17.7129 11.3325 17.7129C11.0239 17.7129 10.9736 17.6914 10.9736 17.5694Z" fill="#D64D5A"/>
<path d="M25.2544 17.6053C25.2544 17.5479 25.2975 17.4977 25.3549 17.4977C25.4123 17.4977 25.4697 17.4618 25.484 17.4187C25.4984 17.3685 25.6276 17.3613 25.85 17.39C26.1156 17.4331 26.1873 17.469 26.1873 17.5766C26.1873 17.6986 26.1299 17.713 25.7209 17.713C25.3549 17.713 25.2544 17.6914 25.2544 17.6053Z" fill="#D64D5A"/>
<path d="M9.75439 17.5335C9.75439 17.4761 9.79745 17.4258 9.85486 17.4258C9.91228 17.4258 9.97686 17.3828 9.99122 17.3397C10.0199 17.2679 10.0343 17.2679 10.0343 17.3397C10.0415 17.3828 10.0917 17.4258 10.1491 17.4258C10.2065 17.4258 10.2567 17.4761 10.2567 17.5335C10.2567 17.6052 10.1778 17.6411 10.0056 17.6411C9.83334 17.6411 9.75439 17.6052 9.75439 17.5335Z" fill="#D64D5A"/>
<path d="M26.6187 17.5334C26.6187 17.476 26.6617 17.4258 26.7191 17.4258C26.7765 17.4258 26.8339 17.3971 26.8483 17.3612C26.8627 17.3181 27.0062 17.311 27.1784 17.3325C27.4081 17.3612 27.4798 17.4043 27.4798 17.5047C27.4798 17.6196 27.4224 17.6411 27.0492 17.6411C26.7119 17.6411 26.6187 17.6196 26.6187 17.5334Z" fill="#D64D5A"/>
<path d="M8.39014 17.4187C8.39014 17.2823 8.41884 17.268 8.63414 17.3038C8.79202 17.3254 8.89966 17.311 8.92119 17.2608C8.94272 17.1962 8.95707 17.1962 8.95707 17.268C8.96425 17.311 9.01449 17.3541 9.0719 17.3541C9.12931 17.3541 9.17954 17.4043 9.17954 17.4617C9.17954 17.5478 9.08625 17.5694 8.78484 17.5694C8.4332 17.5694 8.39014 17.555 8.39014 17.4187Z" fill="#D64D5A"/>
<path d="M27.6948 17.4617C27.6948 17.4043 27.7379 17.3541 27.7953 17.3541C27.8527 17.3541 27.9101 17.3254 27.9245 17.2895C27.9388 17.2464 28.0824 17.2393 28.2546 17.2608C28.4842 17.2895 28.556 17.3325 28.556 17.433C28.556 17.5478 28.4986 17.5694 28.1254 17.5694C27.7881 17.5694 27.6948 17.5478 27.6948 17.4617Z" fill="#D64D5A"/>
<path d="M7.45752 17.3469C7.45752 17.232 7.4934 17.2033 7.65846 17.2177C7.76611 17.232 7.89528 17.2177 7.94552 17.189C7.98857 17.1531 8.03163 17.1603 8.03163 17.2033C8.03163 17.2464 8.08187 17.2823 8.13928 17.2823C8.19669 17.2823 8.24693 17.3325 8.24693 17.3899C8.24693 17.476 8.15363 17.4976 7.85222 17.4976C7.50058 17.4976 7.45752 17.4832 7.45752 17.3469Z" fill="#D64D5A"/>
<path d="M28.6992 17.3899C28.6992 17.3325 28.7423 17.2823 28.7997 17.2823C28.8571 17.2823 28.9145 17.2536 28.9289 17.2105C28.9432 17.1746 29.0652 17.1603 29.2231 17.189C29.4169 17.2177 29.4886 17.2607 29.4886 17.3612C29.4886 17.476 29.4312 17.4976 29.0939 17.4976C28.7925 17.4976 28.6992 17.476 28.6992 17.3899Z" fill="#D64D5A"/>
<path d="M6.18699 17.3756C5.8784 17.3541 5.80664 17.3254 5.80664 17.2178C5.80664 17.1173 5.87123 17.0742 6.05782 17.0527C6.19417 17.0384 6.30899 17.0455 6.30899 17.0742C6.30899 17.1604 6.98357 17.1891 7.04099 17.1101C7.07687 17.0599 7.0984 17.0599 7.0984 17.1245C7.0984 17.1675 7.14863 17.2106 7.20604 17.2106C7.26345 17.2106 7.31369 17.2608 7.31369 17.3182C7.31369 17.4259 7.11993 17.4402 6.18699 17.3756Z" fill="#D64D5A"/>
<path d="M29.561 17.3182C29.561 17.2608 29.6041 17.2106 29.6615 17.2106C29.7189 17.2106 29.7763 17.1818 29.7907 17.1388C29.805 17.1029 29.927 17.0886 30.0849 17.1173C30.2787 17.146 30.3504 17.189 30.3504 17.2895C30.3504 17.4043 30.293 17.4258 29.9557 17.4258C29.6543 17.4258 29.561 17.4043 29.561 17.3182Z" fill="#D64D5A"/>
<path d="M30.4224 17.2536C30.4224 17.189 30.4726 17.1388 30.53 17.1388C30.5874 17.1388 30.6377 17.1101 30.6377 17.067C30.6377 17.0312 30.7884 17.0168 30.9965 17.0455C31.2477 17.0742 31.3553 17.0599 31.3553 17.0025C31.3553 16.945 31.4629 16.9307 31.7141 16.9666C31.9653 17.0025 32.0729 16.9881 32.0729 16.9307C32.0729 16.8733 32.1806 16.8589 32.4318 16.8948C32.6758 16.9235 32.7906 16.9163 32.7906 16.8589C32.7906 16.8087 32.8982 16.7943 33.1135 16.8302C33.336 16.8589 33.4365 16.8446 33.4365 16.7872C33.4365 16.7297 33.5298 16.7226 33.7235 16.7513C33.9245 16.7872 34.0106 16.7728 34.0106 16.7154C34.0106 16.658 34.0895 16.6436 34.2689 16.6795C34.434 16.7082 34.5488 16.701 34.5775 16.6436C34.6636 16.5073 35.087 16.6293 35.087 16.7872C35.087 16.8661 35.0368 16.9235 34.965 16.9235C34.8933 16.9235 34.1397 17.0025 33.2929 17.0957C30.8529 17.3756 30.4224 17.3972 30.4224 17.2536Z" fill="#D64D5A"/>
<path d="M4.71556 17.232C4.43568 17.2105 4.37109 17.1746 4.37109 17.0742C4.37109 16.9809 4.43568 16.9306 4.58639 16.9091C4.70839 16.8876 4.80168 16.9091 4.80168 16.945C4.80168 16.9809 4.95956 16.9952 5.1605 16.9809C5.36144 16.9593 5.51932 16.9737 5.51932 17.0024C5.51932 17.0383 5.56956 17.067 5.62697 17.067C5.68438 17.067 5.73461 17.1172 5.73461 17.1746C5.73461 17.2823 5.54803 17.2966 4.71556 17.232Z" fill="#D64D5A"/>
<path d="M3.2589 17.0599C3.02208 17.0312 2.29009 16.9307 1.62268 16.8446C0.962448 16.7513 0.388334 16.658 0.3381 16.6293C0.280688 16.5934 0.280688 16.4212 0.345276 15.9404C1.16339 10.027 4.8736 4.80255 10.177 2.11139C12.1792 1.09951 14.002 0.532574 16.2339 0.23834C17.4395 0.080459 17.6117 0.116341 16.607 0.310105C15.5378 0.511044 15.0211 0.647396 14.0594 0.970335C8.88522 2.72138 4.67984 6.80477 2.75655 11.9359C2.21832 13.3784 1.62986 16.0049 1.74468 16.4642C1.78774 16.6293 1.82362 16.6508 2.03891 16.6221C2.17526 16.6078 2.29009 16.6221 2.29009 16.658C2.29009 16.6939 2.41926 16.7082 2.57714 16.6939C2.73502 16.6795 2.8642 16.6939 2.8642 16.7298C2.8642 16.7656 3.00773 16.78 3.18714 16.7656C3.36655 16.7513 3.51008 16.7728 3.51008 16.8015C3.51008 16.8374 3.63925 16.8518 3.79714 16.8374C3.95502 16.8231 4.08419 16.8374 4.08419 16.8661C4.08419 16.902 4.13443 16.9235 4.19184 16.9235C4.24925 16.9235 4.29948 16.9738 4.29948 17.0312C4.29948 17.1532 3.9909 17.1603 3.2589 17.0599Z" fill="#D64D5A"/>
<path d="M16.4277 12.7253C16.4277 12.589 16.722 12.4383 16.9875 12.4383C17.1597 12.4383 17.3176 12.3952 17.3535 12.345C17.4324 12.2086 17.7913 12.3163 17.7913 12.467C17.7913 12.5675 17.6836 12.6105 17.332 12.6751C16.8583 12.7612 16.4277 12.7899 16.4277 12.7253Z" fill="#D64D5A"/>
<path d="M19.9443 12.6249C19.9443 12.5532 20.0089 12.4742 20.0879 12.4527C20.1668 12.4312 20.2314 12.4455 20.2314 12.4814C20.2314 12.5173 20.2816 12.546 20.339 12.546C20.3965 12.546 20.4467 12.5962 20.4467 12.6536C20.4467 12.7254 20.3677 12.7613 20.1955 12.7613C19.9946 12.7613 19.9443 12.7326 19.9443 12.6249Z" fill="#D64D5A"/>
<path d="M19.083 12.4813C19.083 12.388 19.1476 12.3377 19.2983 12.3162C19.4203 12.2947 19.5136 12.309 19.5136 12.3449C19.5136 12.3736 19.5638 12.4023 19.6212 12.4023C19.6787 12.4023 19.7289 12.4526 19.7289 12.51C19.7289 12.5889 19.6428 12.6176 19.4059 12.6176C19.1404 12.6176 19.083 12.5961 19.083 12.4813Z" fill="#D64D5A"/>
<path d="M17.8633 12.4383C17.8633 12.3809 17.9135 12.3307 17.9709 12.3307C18.0283 12.3307 18.0786 12.3019 18.0786 12.2661C18.0786 12.223 18.2436 12.2015 18.4374 12.2015C18.6383 12.2087 18.7962 12.2374 18.7962 12.2732C18.7962 12.3019 18.8465 12.3307 18.9039 12.3307C18.9613 12.3307 19.0115 12.3809 19.0115 12.4383C19.0115 12.5244 18.8967 12.5459 18.4374 12.5459C17.9781 12.5459 17.8633 12.5244 17.8633 12.4383Z" fill="#D64D5A"/>
<path d="M34.7993 20.3753C34.7993 20.2964 34.828 20.2246 34.8567 20.2246C34.9931 20.2246 35.0577 19.5787 35.0433 18.165L35.029 16.6507L35.6174 16.5646C35.9332 16.5216 36.3207 16.4641 36.4642 16.4426L36.7226 16.4067L36.78 16.7512C36.8805 17.354 36.8518 20.1528 36.7513 20.2174C36.7011 20.2461 36.3494 20.3107 35.9619 20.3609C35.5815 20.4112 35.1581 20.4686 35.0361 20.4901C34.828 20.5188 34.7993 20.5045 34.7993 20.3753Z" fill="#696E76"/>
<path d="M0.180918 19.3492C0.101978 19.0477 0.130683 18.9329 0.281388 18.9329C0.403387 18.9329 0.424917 18.9832 0.424917 19.22C0.424917 19.5429 0.259859 19.629 0.180918 19.3492Z" fill="#696E76"/>
<path d="M17.6834 26.0375C15.717 25.7864 13.9014 24.6668 12.7747 23.0091C12.5379 22.6574 12.093 21.7747 12.0284 21.5236C12.0068 21.4375 11.9494 21.3585 11.892 21.3442C11.8418 21.3298 11.0739 21.2796 10.184 21.2293C8.53345 21.1432 6.96899 21.0212 5.05288 20.8346C3.7683 20.7055 0.510208 20.3036 0.34515 20.2533C0.24468 20.2246 0.215975 20.0596 0.180093 19.2343C0.137034 18.3157 0.215975 16.536 0.302092 16.4498C0.323621 16.4283 0.790088 16.4785 1.3355 16.5575C2.81384 16.78 5.40453 17.0598 7.60051 17.2392C8.06698 17.2751 9.58838 17.3756 11.0524 17.4617L11.8203 17.5119L12.0068 16.945C12.7604 14.6844 14.7841 12.9334 17.2169 12.4382C18.0135 12.2732 19.4344 12.3234 20.2525 12.5387C22.4629 13.12 24.3288 14.8638 25.0392 17.024L25.1971 17.5119L26.0009 17.4689C28.8284 17.3038 31.8927 17.0383 34.0026 16.78C34.6485 16.701 35.201 16.6508 35.2226 16.6795C35.2656 16.7154 35.2656 19.7223 35.2226 20.2031C35.201 20.4686 35.2369 20.4615 33.9739 20.6122C31.9071 20.8705 28.4624 21.1647 26.087 21.2867C25.3119 21.3226 25.0751 21.3585 25.032 21.4446C25.0033 21.502 24.867 21.8034 24.7235 22.1049C23.8838 23.9636 22.2045 25.3486 20.2095 25.8581C19.4416 26.0519 18.3939 26.1237 17.6834 26.0375ZM19.6784 22.0259C20.188 21.825 20.9056 21.1791 21.1927 20.6624C21.3003 20.4615 21.4367 20.0668 21.4941 19.7869C21.7022 18.775 21.4008 17.799 20.6544 17.0455C18.9464 15.3303 16.0256 16.2058 15.5233 18.5812C15.3869 19.2128 15.4659 19.8873 15.7458 20.4973C16.0759 21.215 16.9801 21.9757 17.7408 22.1694C18.1642 22.2771 19.2263 22.1982 19.6784 22.0259Z" fill="#404750"/>
</g>
<defs>
<clipPath id="clip0_7_455">
<rect width="36.7433" height="36.7433" fill="white" transform="translate(0.137695 0.0588989)"/>
</clipPath>
</defs>
</svg>
