<svg width="20%" height="18%" viewBox="0 0 310 275" fill="none" xmlns="http://www.w3.org/2000/svg">
<path d="M132.265 308.151C81.4512 301.192 37.8489 269.831 15.2931 223.881C3.7217 200.319 -0.806236 177.763 0.116121 148.416C0.786926 127.956 3.63785 113.534 10.5136 96.0928C24.4328 60.624 52.6905 30.4378 86.9015 14.59C109.625 3.94098 128.324 0 155.408 0C176.286 0 187.942 1.76086 206.137 7.71426C250.494 22.2204 287.305 58.8632 302.062 103.22C308.351 121.919 310.615 139.024 309.86 160.993C308.938 186.735 303.572 207.698 292.755 228.074C269.193 272.179 226.597 301.611 176.706 308.151C165.302 309.66 143.417 309.66 132.265 308.151ZM180.982 280.648C198.507 276.539 211.084 271.089 225.926 261.195C250.075 245.095 268.187 221.366 277.494 193.527C279.842 186.484 283.28 172.229 283.28 169.211C283.28 167.785 280.848 167.701 243.283 167.701H203.202L200.855 173.99C195.488 188.329 183.414 198.726 167.817 202.499C159.6 204.512 145.094 203.925 137.463 201.242C123.796 196.63 113.147 185.981 108.367 172.145L106.774 167.701H66.7774C30.6378 167.701 26.6968 167.869 26.6968 169.043C26.6968 172.481 30.3862 187.658 33.0694 195.456C37.9328 209.627 45.5632 223.378 55.2898 235.201C73.15 257.17 97.7183 272.766 125.221 279.642C138.218 282.912 142.578 283.331 157.923 282.996C169.243 282.744 173.938 282.241 180.982 280.648ZM161.864 176.086C170.165 172.984 177.879 162.67 177.879 154.704C177.879 152.776 176.957 149.17 175.783 146.655C171.926 138.27 164.631 132.736 156.246 131.897C146.435 130.891 135.283 139.695 132.349 150.847C129.917 160.155 137.799 172.397 149.035 176.506C153.311 178.099 156.833 178.015 161.864 176.086ZM107.948 138.186C112.308 123.428 125.557 111.018 141.321 106.91C147.693 105.233 162.116 105.316 168.74 106.993C184.252 111.018 197.668 123.512 202.028 138.186L203.035 141.708H243.199C279.339 141.708 283.28 141.54 283.28 140.366C283.28 136.928 279.59 121.751 276.907 113.953C261.814 70.6022 226.513 39.4098 180.143 28.4254C169.327 25.826 142.578 25.5744 131.51 27.9223C119.436 30.5216 104.762 35.8042 95.0351 41.1707C60.4886 60.2048 36.1719 92.8227 28.2899 131.059C27.4514 135.251 26.6968 139.444 26.6968 140.282C26.6968 141.624 29.1284 141.708 66.7774 141.708H106.942L107.948 138.186Z" fill="white"/>
</svg>
