<svg width="48" height="48" viewBox="0 0 48 48" fill="none" xmlns="http://www.w3.org/2000/svg">
<path d="M20.1242 46.8856C12.3929 45.8267 5.75876 41.0552 2.32686 34.0638C0.566261 30.4788 -0.12267 27.0469 0.0176679 22.5816C0.119732 19.4687 0.553503 17.2743 1.59966 14.6206C3.71748 9.22402 8.01692 4.63115 13.2222 2.21989C16.6796 0.599625 19.5246 0 23.6454 0C26.8222 0 28.5955 0.267918 31.364 1.17373C38.113 3.38086 43.7137 8.9561 45.9591 15.7051C46.916 18.5501 47.2605 21.1527 47.1456 24.4953C47.0053 28.412 46.1888 31.6015 44.543 34.7017C40.958 41.4124 34.477 45.8905 26.886 46.8856C25.1509 47.1152 21.8211 47.1152 20.1242 46.8856ZM27.5366 42.701C30.203 42.0758 32.1167 41.2465 34.3749 39.7411C38.0492 37.2916 40.8049 33.6811 42.2211 29.4454C42.5783 28.3737 43.1014 26.2049 43.1014 25.7456C43.1014 25.5287 42.7314 25.516 37.0158 25.516H30.9175L30.5603 26.4728C29.7438 28.6544 27.9066 30.2364 25.5336 30.8105C24.2833 31.1167 22.0762 31.0274 20.9152 30.6192C18.8357 29.9175 17.2154 28.2972 16.4882 26.1921L16.2458 25.516H10.1603C4.66157 25.516 4.06195 25.5415 4.06195 25.7201C4.06195 26.2432 4.6233 28.5524 5.03155 29.7388C5.77152 31.8949 6.93249 33.9873 8.41242 35.7861C11.1299 39.1287 14.868 41.5017 19.0526 42.5479C21.0301 43.0454 21.6935 43.1092 24.0282 43.0582C25.7505 43.0199 26.465 42.9434 27.5366 42.701ZM24.6278 26.7918C25.8908 26.3197 27.0646 24.7505 27.0646 23.5385C27.0646 23.245 26.9242 22.6964 26.7456 22.3137C26.1588 21.0379 25.0488 20.1959 23.773 20.0683C22.2803 19.9152 20.5835 21.2548 20.137 22.9516C19.767 24.3677 20.9663 26.2304 22.6758 26.8555C23.3265 27.0979 23.8623 27.0852 24.6278 26.7918ZM16.4244 21.0252C17.0878 18.7797 19.1036 16.8916 21.5021 16.2664C22.4717 16.0113 24.6661 16.024 25.674 16.2792C28.0342 16.8916 30.0755 18.7925 30.7389 21.0252L30.892 21.561H37.003C42.5017 21.561 43.1014 21.5355 43.1014 21.3569C43.1014 20.8338 42.54 18.5246 42.1318 17.3381C39.8353 10.7422 34.4642 5.99625 27.409 4.32495C25.7633 3.92946 21.6935 3.89118 20.0094 4.24841C18.1723 4.6439 15.9396 5.44766 14.4597 6.26417C9.20341 9.16023 5.5036 14.1231 4.30435 19.9407C4.17677 20.5786 4.06195 21.2165 4.06195 21.3441C4.06195 21.5482 4.43193 21.561 10.1603 21.561H16.2713L16.4244 21.0252Z" fill="white"/>
</svg>
