<svg width="141" height="195" viewBox="0 0 141 195" fill="none" xmlns="http://www.w3.org/2000/svg">
<g clip-path="url(#clip0_7_379)">
<path d="M45.1883 134.696C45.2956 132.728 48.2123 130.295 53.9383 127.396C59.8432 124.354 64.5671 123.155 68.1101 123.799C73.1919 124.765 77.6832 125.964 81.584 127.396C87.6679 129.615 93.6981 132.782 99.6746 136.897C105.293 140.762 110.339 146.023 114.813 152.68C117.031 156.044 118.696 158.996 119.805 161.537C120.163 158.96 121.201 156.992 122.918 155.632C124.35 154.487 125.925 153.914 127.642 153.914C131.364 153.914 134.317 155.453 136.5 158.531C138.754 161.68 139.882 165.992 139.882 171.468C139.882 175.655 137.752 179.252 133.494 182.258C128.483 185.801 121.559 187.572 112.719 187.572C105.741 187.572 99.2809 186.66 93.3402 184.834L86.469 182.043C82.8545 183.582 78.0232 183.135 71.9751 180.701C64.6745 177.731 58.3938 172.488 53.1331 164.972C47.2282 156.598 44.5799 146.506 45.1883 134.696Z" fill="#009A63"/>
<path d="M47.9256 154.183C46.0289 148.6 45.0806 143.464 45.0806 138.776C45.0448 137.237 45.671 135.949 46.9594 134.911C48.1046 134.016 49.5361 133.462 51.2539 133.247C52.8285 133.032 55.0294 134.374 57.8566 137.273C60.6123 140.1 62.7774 143.142 64.3521 146.399C67.6087 153.342 72.44 159.891 78.8459 166.046C89.1169 175.923 100.479 180.862 112.933 180.862C125.065 180.862 132.795 177.713 136.124 171.414C137.161 169.446 137.698 167.281 137.734 164.919L137.466 161.966L138.647 164.436C139.398 166.511 139.774 168.551 139.774 170.555C139.774 175.279 137.824 179.144 133.923 182.15C129.235 185.765 122.167 187.572 112.719 187.572C104.989 187.572 98.2964 186.66 92.642 184.835L86.4687 182.043C82.8183 183.367 78.2376 182.956 72.7263 180.808C66.6425 178.411 61.0596 174.402 55.9778 168.784C52.6854 165.134 50.0013 160.266 47.9256 154.183Z" fill="#008756"/>
<path d="M67.9488 124.39C67.8057 124.354 67.7699 124.157 67.8415 123.799C67.913 123.441 68.0204 123.28 68.1635 123.316C81.3691 125.821 91.8548 129.865 99.6206 135.448C108.746 142.033 116.369 152.125 122.489 165.724C123.133 167.156 123.312 167.943 123.026 168.086C122.704 168.229 122.202 167.585 121.523 166.154C115.331 153.234 107.655 143.5 98.4933 136.951C90.9064 131.511 80.7249 127.324 67.9488 124.39Z" fill="#0D131A"/>
<path d="M85.2343 182.15C77.3969 178.106 71.6888 172.595 68.1101 165.617C67.7522 164.901 67.5912 164.114 67.627 163.255C67.627 162.396 67.7343 162.181 67.949 162.611C71.0268 170.054 76.538 175.906 84.4828 180.164C92.4634 184.459 101.911 186.606 112.826 186.606C120.95 186.606 127.302 185.228 131.883 182.473C136.464 179.681 138.754 175.816 138.754 170.877C138.754 166.655 137.824 163.004 135.963 159.927C133.887 156.491 131.185 154.773 127.857 154.773C125.352 154.773 123.402 155.596 122.006 157.242C120.682 158.746 120.234 160.428 120.664 162.288C120.7 162.432 120.574 162.539 120.288 162.611C120.038 162.646 119.894 162.593 119.859 162.45C119.322 160.088 119.805 157.994 121.308 156.169C122.847 154.201 125.03 153.216 127.857 153.216C131.758 153.216 134.836 154.773 137.09 157.887C139.381 161.036 140.526 165.366 140.526 170.877C140.526 176.138 138.021 180.361 133.01 183.546C128 186.731 121.272 188.324 112.826 188.324C102.448 188.324 93.2507 186.266 85.2343 182.15Z" fill="#0D131A"/>
<path d="M44.8668 134.535C44.8668 134.392 44.992 134.338 45.2426 134.374L45.6183 134.643C45.0457 140.87 45.9046 147.115 48.195 153.377C50.3423 159.246 53.4915 164.543 57.6429 169.267C61.7584 173.919 66.3213 177.373 71.3316 179.627C76.5565 181.989 81.6204 182.705 86.5233 181.775C86.6665 181.739 86.8812 181.882 87.1675 182.204C87.4538 182.526 87.5254 182.705 87.3822 182.741C81.8709 183.779 76.3776 183.206 70.9021 181.023C65.6056 178.947 60.8816 175.601 56.7303 170.985C47.4972 160.857 43.5427 148.707 44.8668 134.535Z" fill="#0D131A"/>
<path d="M42.8797 87.1349L41.6987 86.0076C42.3787 84.5761 43.7028 82.5542 45.6711 79.9417L49.2141 75.5398C49.9298 74.7525 51.3613 74.7704 53.5086 75.5935C55.5842 76.3451 56.64 77.0429 56.6757 77.6871L56.9978 84.3435L57.1052 92.7715L54.7969 97.388C53.4012 96.6365 52.1486 96.0818 51.0392 95.7239L47.55 95.4555L45.2954 95.5629C45.0806 93.0578 44.8122 91.1252 44.4901 89.7653C44.2754 88.9064 43.7386 88.0296 42.8797 87.1349Z" fill="#E73820"/>
<path d="M53.8846 1.13782C56.1034 1.13782 58.036 2.49774 59.6822 5.21758C60.5053 6.5775 61.1137 7.93742 61.5073 9.29734C64.1914 6.79222 66.4281 5.11022 68.2175 4.25132C69.5058 3.64293 70.9194 3.33874 72.4583 3.33874C76.3233 3.33874 80.0094 7.23957 83.5166 15.0412C87.0237 22.8787 88.7773 31.1992 88.7773 40.0029C88.7773 47.1246 87.5606 53.5842 85.127 59.3818C82.4788 65.6804 78.6853 70.3685 73.7466 73.4462C69.3448 76.2018 65.1934 77.7765 61.2926 78.1702L56.7834 77.9554C60.72 76.3092 63.9767 73.5715 66.5534 69.7422C67.8417 67.8097 68.7364 66.0561 69.2374 64.4815C65.6229 66.0561 62.0978 66.253 58.6622 65.072L54.6362 62.8174C53.5268 64.6067 51.7016 66.1098 49.1607 67.3266C46.6198 68.5434 44.0073 69.1517 41.3233 69.1517C37.8519 69.1517 34.7563 68.0423 32.0364 65.8235C28.8871 63.2468 27.3125 59.8291 27.3125 55.5704C27.3125 50.596 28.7619 46.212 31.6607 42.4186C33.1279 40.5218 34.5773 39.1261 36.0088 38.2314C36.2593 28.032 38.6392 19.0315 43.1484 11.2299C47.0492 4.50183 50.628 1.13782 53.8846 1.13782Z" fill="#8BC56C"/>
<path d="M64.6209 81.0689C65.3724 82.8225 65.7482 84.2898 65.7482 85.4708C65.7482 94.346 64.0841 101.915 60.7558 108.178C57.3203 114.62 53.0079 117.84 47.8187 117.84C44.7768 117.84 42.0748 116.534 39.7129 113.922L37.0288 110.003C41.6454 109.323 45.0989 108.41 47.3893 107.265C48.8207 106.55 50.8785 103.865 53.5626 99.2131L57.1055 92.4493L57.0518 84.0214L56.7834 77.9554L59.1991 76.6671C60.3801 76.6313 61.5074 77.1144 62.581 78.1165C63.4757 78.9396 64.1556 79.9237 64.6209 81.0689Z" fill="#8BC56C"/>
<path d="M35.5258 85.8465L37.2436 85.9539C39.1761 85.2381 40.9297 85.5602 42.5043 86.9201C44.3653 88.5664 45.3494 91.3578 45.4568 95.2944L39.4982 95.9386C38.1741 96.0817 36.5457 96.5112 34.6132 97.2269L32.0902 98.1932C31.0524 98.1574 30.0861 97.7995 29.1914 97.1195C28.0462 96.2607 27.4736 95.1155 27.4736 93.684C27.4736 91.5009 28.3146 90.0158 29.9966 89.2284L32.466 88.6916C33.1817 87.0454 34.2017 86.097 35.5258 85.8465Z" fill="#8BC56C"/>
<path d="M41.5918 86.2761C40.8044 85.7392 40.1961 85.4172 39.7666 85.3098L38.2099 85.2561L37.1362 85.3635C38.6393 83.8604 40.6076 82.3394 43.0411 80.8006L46.262 78.9218L43.578 82.9478L41.5918 86.2761Z" fill="#8BC56C"/>
<path d="M27.4731 95.1334L27.9562 95.8313L29.1909 97.227C29.9424 97.8712 30.7655 98.2111 31.6602 98.2469L36.1157 96.7975C39.8376 95.8313 43.5953 95.3482 47.3888 95.3482C49.5718 95.3482 51.4506 95.706 53.0253 96.4218C53.8126 96.7439 54.3673 97.0838 54.6894 97.4417C53.9021 99.0164 52.8463 100.716 51.5222 102.541C49.9476 104.76 48.6413 106.192 47.6035 106.836C46.4941 107.552 43.8995 108.339 39.8197 109.198C35.8473 110.057 32.9307 110.486 31.0697 110.486C29.2446 110.486 27.7415 109.788 26.5605 108.393C25.3437 106.961 24.7354 105.225 24.7354 103.186C24.7354 101.504 25.2006 99.6605 26.1311 97.6564L27.4731 95.1334Z" fill="#8BC56C"/>
<path d="M62.8492 103.776L64.4597 105.386C65.4975 106.675 66.0164 107.892 66.0164 109.037C66.0164 110.218 65.6764 111.148 64.9965 111.828L63.9765 112.526L64.0839 113.922C64.0481 115.031 63.7797 115.997 63.2787 116.821C62.7776 117.644 61.9187 118.109 60.702 118.216L59.0379 118.163L57.8032 119.29C56.8012 120.006 55.817 120.364 54.8507 120.364C53.9203 120.364 53.2403 119.773 52.8109 118.592L52.4888 116.767C54.5644 115.121 56.5327 113.367 58.3937 111.506C59.5389 110.325 60.6304 108.679 61.6682 106.567L62.8492 103.776Z" fill="#8BC56C"/>
<path d="M65.7484 84.3973L68.4862 92.181C70.3113 98.6228 71.2239 104.975 71.2239 111.238C71.2239 118.753 69.4524 124.801 65.9095 129.382C61.6866 134.786 55.3522 137.488 46.9064 137.488C43.9718 137.488 41.5204 136.271 39.5521 133.838L37.4585 130.187L39.9278 131.368C41.753 132.12 43.2203 132.496 44.3297 132.496C48.982 132.496 52.4892 130.402 54.8512 126.215C55.5669 124.891 56.1395 123.459 56.569 121.92L56.9447 119.934L59.0383 118.163C60.2551 118.485 61.436 118.288 62.5812 117.572C63.3328 117.107 63.7801 116.123 63.9233 114.62L63.9769 112.526C64.3348 112.383 64.6927 112.132 65.0506 111.775C65.7305 111.095 66.0705 110.236 66.0705 109.198C66.0705 108.196 65.5337 106.961 64.4601 105.494L62.8496 103.561C64.138 100.484 65.0506 97.245 65.5874 93.8451C65.9095 91.7337 66.0347 89.5149 65.9631 87.1887L65.7484 84.3973Z" fill="#8BC56C"/>
<path d="M58.8773 131.261C61.9192 131.046 63.4581 131.243 63.4939 131.851L63.6012 136.253L64.3528 144.574C64.818 148.976 65.2832 152.501 65.7485 155.149C66.2137 157.726 66.8042 160.231 67.5199 162.664L70.043 170.287C70.9018 172.756 72.0649 175.082 73.5322 177.265C74.2838 178.375 74.9458 179.216 75.5184 179.788L77.5046 179.466C78.793 179.466 79.9561 180.128 80.9939 181.453C81.9602 182.741 82.4433 184.119 82.4433 185.586C82.4433 187.304 81.817 188.896 80.5644 190.364C79.2761 191.938 77.7909 192.726 76.1089 192.726C74.7132 192.726 73.4606 192.314 72.3512 191.491L71.0629 190.203L69.7209 191.813C68.5041 192.887 67.1263 193.423 65.5874 193.423C63.3686 193.423 61.615 192.368 60.3267 190.256L59.0383 187.089C59.0383 188.878 58.1615 190.382 56.408 191.598C54.9049 192.636 53.3839 193.155 51.8451 193.155C50.5209 193.155 49.1431 192.69 47.7116 191.759C45.8865 190.543 44.9739 189.004 44.9739 187.143C44.9739 185.854 45.296 184.691 45.9402 183.653C46.5843 182.58 47.7116 181.417 49.3221 180.164C50.0378 179.592 51.1293 178.16 52.5966 175.87L54.8512 171.951C55.3522 170.877 55.6027 167.567 55.6027 162.02C55.6027 159.05 55.1375 155.489 54.207 151.337C53.4913 148.331 52.6861 145.522 51.7914 142.91C51.2546 141.371 50.342 140.011 49.0536 138.83L47.2822 137.488C45.5644 138.096 43.6498 139.528 41.5383 141.782C39.069 144.502 37.8343 147.115 37.8343 149.62C37.8343 152.053 38.4069 154.863 39.5521 158.048C40.912 161.841 42.6835 164.704 44.8665 166.637C47.479 168.855 48.7852 171.182 48.7852 173.615C48.7852 175.977 47.4969 177.91 44.9202 179.413C41.592 181.345 36.4207 182.311 29.4064 182.311C23.4299 182.311 18.9028 181.828 15.8251 180.862L12.98 179.359L9.92015 179.198L8.30971 178.339C6.80664 178.912 5.30357 178.429 3.8005 176.89C2.29743 175.387 1.5459 173.651 1.5459 171.683C1.5459 169.929 2.22586 168.336 3.58578 166.905C4.83834 165.581 6.01932 164.919 7.12873 164.919C7.84448 164.919 8.50654 165.205 9.11493 165.778L12.1211 165.831C12.6579 166.082 13.1052 166.35 13.4631 166.637L14.5904 166.261L16.7913 165.831C17.7934 165.831 18.8133 166.261 19.8511 167.12C22.2131 167.585 24.8077 167.406 27.6349 166.583L31.1779 165.187C30.1758 164.042 29.1917 162.539 28.2254 160.678C26.2213 156.992 25.2193 153.342 25.2193 149.727C25.2193 146.077 26.1497 142.82 28.0107 139.957C29.6927 137.38 32.842 134.124 37.4585 130.187L39.2837 131.744C40.7152 132.853 41.9141 133.569 42.8803 133.891C43.9539 134.285 45.5644 134.285 47.7116 133.891C49.6441 133.569 51.2725 133.086 52.5966 132.442C53.7776 131.833 55.8711 131.44 58.8773 131.261Z" fill="#8BC56C"/>
<path d="M43.363 71.5673L41.1621 69.1517L43.5778 68.8296L48.6238 67.5949C50.0911 67.0939 51.5226 66.1455 52.9183 64.7498L54.6361 62.8173L56.7833 64.3741C58.6085 65.3761 60.4515 65.8771 62.3124 65.8771C65.247 65.8771 67.5195 65.4298 69.1299 64.5351L68.7005 66.1455C68.1279 67.577 67.1437 69.1517 65.748 70.8695C64.3523 72.6231 62.4377 74.3588 60.0042 76.0765L56.7296 78.1701C56.1928 78.5638 55.3697 78.8501 54.2603 79.029L50.3416 78.7069C49.1248 78.3491 48.5701 77.7228 48.6775 76.8281L49.2143 75.5397C47.1744 74.6808 45.224 73.3567 43.363 71.5673Z" fill="#C82E19"/>
<path d="M46.6916 117.518L50.664 117.411L52.3281 116.713L52.8112 118.216C53.2049 119.254 53.6164 119.88 54.0459 120.095L56.9447 119.934C56.9447 123.477 55.5311 126.501 52.7039 129.006C50.0914 131.297 47.1747 132.442 43.9538 132.442C40.9119 132.442 38.2458 131.297 35.9554 129.006C33.3787 126.429 32.0903 123.012 32.0903 118.753L32.2514 110.433L37.029 109.788L37.9416 111.452C38.6573 112.669 39.2478 113.528 39.713 114.029C41.073 115.496 43.3991 116.66 46.6916 117.518Z" fill="#E73820"/>
<path d="M62.313 35.5474L66.0707 33.9906C69.1842 32.9528 72.2082 32.4339 75.1428 32.4339C77.0395 32.4339 78.632 32.6486 79.9204 33.0781L81.2624 33.7222L81.3161 37.0505L81.1014 42.3649C80.6361 46.3731 79.4552 49.9518 77.5584 53.1011C75.4112 56.6441 72.9597 58.4155 70.2041 58.4155C67.699 58.4155 65.6054 56.823 63.9234 53.6379C62.2772 50.5602 61.4541 47.0173 61.4541 43.0091L61.7225 38.5535C61.9014 36.8 62.0983 35.7979 62.313 35.5474Z" fill="#F9BE00"/>
<path d="M36.9753 29.052L36.009 38.2315L33.0566 40.8618C32.7345 38.822 32.9492 36.4958 33.7007 33.8833C34.166 32.2371 34.8459 30.9487 35.7406 30.0183L36.9753 29.052Z" fill="#F9BE00"/>
<path d="M69.8818 39.8419C69.846 40.8439 69.5418 41.667 68.9692 42.3112C68.4324 42.9912 67.8061 43.3133 67.0904 43.2775C66.3388 43.2417 65.7304 42.848 65.2652 42.0965C64.8 41.3807 64.5852 40.5397 64.621 39.5735C64.6926 38.5714 64.9968 37.7304 65.5336 37.0505C66.1062 36.4063 66.7504 36.1021 67.4661 36.1379C68.1819 36.1737 68.7724 36.5495 69.2376 37.2652C69.7386 37.9809 69.9533 38.8398 69.8818 39.8419Z" fill="#FDDE8E"/>
<path d="M10.7251 176.46L10.242 174.42L11.0472 175.279L14.107 177.212C18.0794 179.073 23.5549 180.003 30.5334 180.003C37.5477 180.003 42.6653 179.162 45.8862 177.48C47.2103 176.8 48.0871 176.102 48.5166 175.387L48.1945 176.084C47.6934 177.015 46.9419 177.874 45.9399 178.661C42.6832 181.166 37.5477 182.419 30.5334 182.419C23.5191 182.419 18.4552 181.9 15.3417 180.862L12.765 179.305C11.1903 179.699 9.66936 179.431 8.20207 178.5L6.64532 178.446C5.42855 178.267 4.46229 177.82 3.74654 177.104C3.0308 176.389 2.49398 175.351 2.13611 173.991L1.92139 172.756C2.06454 173.221 2.4403 173.74 3.04869 174.313C4.01495 175.208 4.9991 175.637 6.00115 175.601L5.67906 173.4L6.91373 174.796C8.05892 175.762 9.32937 176.317 10.7251 176.46Z" fill="#78AB5E"/>
<path d="M45.7788 188.431C46.7093 189.576 48.7849 190.149 52.0058 190.149C55.2625 190.185 57.356 189.612 58.2865 188.431L57.7497 189.988C56.5329 192.064 54.6183 193.101 52.0058 193.101C49.4291 193.101 47.5145 192.046 46.2619 189.934L45.7788 188.431Z" fill="#78AB5E"/>
<path d="M59.897 188.914C60.7917 189.952 62.6705 190.453 65.5335 190.417C68.6828 190.346 70.6332 189.719 71.3847 188.539L70.8479 190.417C69.8101 192.565 68.1102 193.638 65.7482 193.638C63.3862 193.638 61.6148 192.565 60.4338 190.417L59.897 188.914Z" fill="#78AB5E"/>
<path d="M82.0671 186.069L81.1545 189.397C80.1167 191.688 78.5063 192.833 76.3232 192.833C74.8918 192.833 73.5855 192.404 72.4045 191.545L71.0625 190.203L72.0288 187.519C72.6729 189.165 74.3728 189.791 77.1285 189.397C79.8841 189.004 81.5303 187.894 82.0671 186.069Z" fill="#78AB5E"/>
<path d="M44.8128 138.4L42.9876 140.333C42.0214 141.371 40.1783 144.162 37.4585 148.707C37.4585 146.81 38.4069 144.198 40.3036 140.87C42.2003 137.541 43.7034 135.877 44.8128 135.877C48.7136 135.877 51.5408 139.08 53.2944 145.486L51.2009 141.621C49.5904 139.045 48.2842 137.738 47.2821 137.703C46.2801 137.667 45.457 137.899 44.8128 138.4Z" fill="#78AB5E"/>
<path d="M53.509 116.338C54.0816 117.518 55.2805 117.697 57.1056 116.874C58.5014 116.23 59.3424 115.497 59.6287 114.673L59.3066 117.196C58.6624 119.308 57.3025 120.364 55.2268 120.364C54.1532 120.364 53.3301 119.809 52.7575 118.699L52.167 117.035C52.6322 116.821 53.0796 116.588 53.509 116.338Z" fill="#78AB5E"/>
<path d="M60.3266 115.317C61.0423 115.317 61.7402 115.049 62.4201 114.512C63.2074 113.94 63.5832 113.224 63.5474 112.365L63.7085 114.244C63.6727 115.783 63.279 116.838 62.5275 117.411C61.3465 118.27 60.255 118.574 59.2529 118.324L60.3266 115.317Z" fill="#78AB5E"/>
<path d="M63.1177 109.681C63.5829 109.609 64.0481 109.287 64.5134 108.715C65.086 108.035 65.1933 107.301 64.8355 106.514L65.6407 107.963C66.0701 109.073 66.0701 110.021 65.6407 110.808C64.9249 112.097 64.406 112.651 64.0839 112.472L63.1177 109.681Z" fill="#78AB5E"/>
<path d="M62.9573 103.186L59.9511 109.144C56.4439 114.942 52.4894 117.84 48.0876 117.84C44.652 117.84 41.789 116.534 39.4986 113.922L37.0293 110.003L44.4373 108.339C43.5068 108.661 43.3279 109.717 43.9005 111.506C44.5446 113.367 45.9761 114.297 48.195 114.297C50.5927 114.297 53.7062 112.526 57.5355 108.983C60.5774 106.156 62.5636 103.722 63.4941 101.682L62.9573 103.186Z" fill="#78AB5E"/>
<path d="M65.9626 94.2745L65.2648 100.287C64.9427 103.15 64.8353 104.85 64.9427 105.387L62.8491 103.776L65.9626 94.2745Z" fill="#78AB5E"/>
<path d="M28.869 105.923C30.5868 105.923 32.6446 105.637 35.0424 105.064L43.3629 103.4L51.254 102.81L50.3951 104.474C49.572 105.691 48.5163 106.55 47.228 107.051L39.6589 109.198C35.937 110.057 33.074 110.486 31.07 110.486C28.7796 110.486 27.0976 109.448 26.0239 107.373L25.165 104.474C25.5229 105.404 26.7576 105.888 28.869 105.923Z" fill="#78AB5E"/>
<path d="M28.3323 91.5905C28.1534 92.342 28.7797 93.3261 30.2112 94.5429C31.8574 95.9386 33.611 96.6544 35.4719 96.6902L32.4121 98.0322C30.909 98.3185 29.7101 97.9248 28.8155 96.8512C27.9923 95.8491 27.6703 94.6503 27.8492 93.2546L28.3323 91.5905Z" fill="#78AB5E"/>
<path d="M34.0763 86.7056C34.0048 86.9919 34.2374 87.5645 34.7742 88.4234L36.0089 90.2485C36.3667 90.8211 35.2394 90.3738 32.627 88.9065L34.0763 86.7056Z" fill="#78AB5E"/>
<path d="M42.7724 95.2408L41.5377 95.6166L41.4304 91.8052C41.323 90.9463 40.9114 89.8906 40.1957 88.6381L39.1221 86.9739C40.4104 87.475 41.3946 88.6738 42.0745 90.5706C42.6113 92.1094 42.844 93.6662 42.7724 95.2408Z" fill="#78AB5E"/>
<path d="M36.8677 91.0001C38.4781 92.5389 39.3012 94.1672 39.337 95.885L37.995 96.4219L37.4045 92.9863L36.8677 91.0001Z" fill="#78AB5E"/>
<path d="M28.4932 59.5966C29.1015 60.9565 30.1752 62.2806 31.714 63.569C34.3981 65.7878 37.5295 66.8972 41.1082 66.8972C44.007 66.8972 46.691 66.2888 49.1604 65.072C51.3792 63.9268 53.1507 62.4417 54.4748 60.6165L55.7095 61.5828C56.7473 62.3343 57.9104 62.9427 59.1987 63.4079C63.2427 64.8752 67.5372 64.732 72.0822 62.9785L69.7739 64.4815C67.7698 65.4478 65.6047 65.9309 63.2785 65.9309C60.9523 65.9309 58.8409 65.4299 56.9441 64.4279L54.7432 62.8711C54.099 63.9089 53.0433 64.9647 51.576 66.0383C48.6772 68.114 45.2059 69.1518 41.1619 69.1518C39.0862 69.1518 37.0285 68.7044 34.9886 67.8098C32.7698 66.8435 31.1235 65.5909 30.0499 64.0521C29.5489 63.3363 29.0479 61.9048 28.5468 59.7576L28.4932 59.5966Z" fill="#78AB5E"/>
<path d="M60.4342 36.3527C63.1898 33.9549 67.0548 32.5234 72.0293 32.0582C76.9322 31.5571 80.4751 32.2192 82.6581 34.0444C83.016 34.3307 83.1234 34.5633 82.9802 34.7422L82.175 34.5812C79.813 33.2213 76.3238 32.7918 71.7072 33.2928C66.9833 33.7581 63.3866 34.9927 60.9173 36.9968C60.4521 37.3905 60.1479 37.48 60.0047 37.2652C59.8258 37.0505 59.9689 36.7463 60.4342 36.3527Z" fill="#0D131A"/>
<path d="M80.7786 33.937L81.4228 33.8833L82.0133 34.1517C82.3354 41.4523 81.2438 47.4825 78.7387 52.2422C76.4125 56.6441 73.6211 58.845 70.3645 58.845C66.8573 58.845 64.2269 56.5367 62.4734 51.9201C60.7556 47.3751 60.4335 42.1323 61.5071 36.1916C62.4018 35.5832 62.8312 35.3864 62.7954 35.6011C61.686 41.3629 61.9186 46.5162 63.4933 51.0612C65.0679 55.5347 67.3762 57.7714 70.4182 57.7714C73.138 57.7714 75.5536 55.7136 77.6651 51.5981C80.0629 46.9099 81.1007 41.0229 80.7786 33.937Z" fill="#0D131A"/>
<path d="M76.9678 32.9171C77.5403 35.6727 77.2004 39.8777 75.9478 45.5321C74.731 51.1149 73.6395 53.6916 72.6733 53.2622C71.7428 52.8685 71.4207 50.0234 71.707 44.7269C71.9933 39.4304 72.6733 35.3864 73.7469 32.595L75.25 32.4876L76.9678 32.9171Z" fill="#0D131A"/>
<path d="M75.8398 37.9631C75.6609 39.2157 75.4104 40.2535 75.0883 41.0766C74.7662 41.9355 74.4799 42.3471 74.2294 42.3113C73.9789 42.2755 73.8178 41.8103 73.7463 40.9156C73.7105 40.0209 73.782 38.9473 73.961 37.6947C74.1399 36.4422 74.3904 35.4043 74.7125 34.5812C74.9988 33.7223 75.2672 33.3108 75.5177 33.3466C75.7682 33.3824 75.9293 33.8476 76.0009 34.7423L75.8398 37.9631Z" fill="white"/>
<path d="M58.8766 3.28507C60.4155 5.07444 61.3997 6.93538 61.8291 8.8679L61.3997 9.35103L60.8628 9.45839C60.5765 7.77639 59.7176 6.11227 58.2862 4.46605C56.7831 2.67669 55.2979 1.782 53.8306 1.782C52.9002 1.782 51.6118 2.44407 49.9656 3.7682C48.0689 5.37863 46.2616 7.50798 44.5438 10.1562C39.8914 17.4927 37.2074 26.8868 36.4916 38.3388L36.2769 38.7146C33.9507 40.325 32.0361 42.508 30.533 45.2637C28.8868 48.3056 28.0637 51.5444 28.0637 54.9799C28.0637 58.9523 29.3163 62.1911 31.8214 64.6962C34.3623 67.2013 37.7084 68.4539 41.8597 68.4539C44.2575 68.4539 46.4942 67.9887 48.5699 67.0582C50.8961 65.9846 52.7928 64.4278 54.2601 62.3879C54.5106 62.1016 54.779 62.0658 55.0653 62.2806L56.3536 63.2468C57.3199 63.891 58.3935 64.392 59.5745 64.7499C63.2248 65.8235 67.072 65.2867 71.1159 63.1395C71.939 62.71 72.4043 62.5848 72.5116 62.7637L71.4917 63.7836C68.6645 65.5372 65.8194 66.4319 62.9564 66.4677C59.8429 66.5035 57.1231 65.5014 54.7969 63.4615C51.5044 67.6487 47.1921 69.7422 41.8597 69.7422C37.7442 69.7422 34.3444 68.6507 31.6603 66.4677C28.3679 63.8552 26.7217 60.026 26.7217 54.9799C26.7217 51.5086 27.6522 48.1446 29.5131 44.8879C31.1235 42.0607 33.1097 39.7703 35.4717 38.0167C36.0443 26.0995 38.7999 16.4011 43.7386 8.92158C45.5637 6.13017 47.532 3.92924 49.6435 2.31881C51.3971 0.958891 52.8286 0.278931 53.938 0.278931C55.5484 0.278931 57.1946 1.28098 58.8766 3.28507Z" fill="#0D131A"/>
<path d="M79.3826 8.92166C77.0922 5.80816 74.8376 4.12615 72.6188 3.87564C69.2906 3.51776 65.3003 5.91552 60.6479 11.0689C55.1009 17.1528 51.2 24.9186 48.9454 34.3665C48.6949 35.4043 48.4444 35.9053 48.1939 35.8696C47.9076 35.798 47.8897 35.2433 48.1402 34.2054C50.3232 24.2565 54.3135 16.1149 60.1111 9.78055C65.014 4.44823 69.2727 1.97891 72.8872 2.37257C75.3565 2.65887 77.8437 4.35877 80.3488 7.47227C82.854 10.5858 84.9296 14.5761 86.5759 19.4431C90.5125 31.0025 90.8703 42.6334 87.6495 54.3358C85.8959 60.706 82.8719 65.9846 78.5774 70.1718C74.3545 74.2873 69.219 77.0429 63.1709 78.4386C63.0278 78.5102 62.813 78.385 62.5267 78.0629C62.2404 77.7766 62.1689 77.6155 62.312 77.5798C74.6587 74.7168 82.6213 66.8435 86.2001 53.9601C89.0989 43.367 88.7231 32.3266 85.0728 20.8389C83.5339 16.0076 81.6372 12.0352 79.3826 8.92166Z" fill="#0D131A"/>
<path d="M40.0879 68.8297L40.6247 68.7224C41.1257 68.7581 41.412 68.8476 41.4836 68.9908C44.0603 72.14 47.299 74.4483 51.1999 75.9156L51.8977 76.3987L51.0925 76.4524C49.1958 76.023 47.2096 75.0925 45.1339 73.661C42.9509 72.1937 41.2689 70.5833 40.0879 68.8297Z" fill="#0D131A"/>
<path d="M36.8676 28.3004L37.1896 28.7835L37.0286 29.374C36.3486 29.5172 35.615 30.6445 34.8277 32.7559C33.8614 35.1895 33.3604 37.8735 33.3246 40.8081C33.2888 41.0944 32.9309 41.3986 32.251 41.7207C31.9289 38.464 32.3583 35.3863 33.5393 32.4875C34.613 29.9108 35.7224 28.5151 36.8676 28.3004Z" fill="#0D131A"/>
<path d="M31.1779 57.3419C31.3569 57.3061 31.5895 57.5566 31.8758 58.0934L32.4126 59.5965C32.52 60.0975 32.4126 60.4375 32.0905 60.6165C31.7326 60.8312 31.4463 60.688 31.2316 60.187C31.0169 59.6144 30.9095 59.006 30.9095 58.3619C30.8737 57.7177 30.9632 57.3777 31.1779 57.3419Z" fill="#0D131A"/>
<path d="M39.4448 59.2744L39.1764 60.5628L38.4248 62.0122L37.5122 62.0658C37.1902 61.8153 37.1186 61.5469 37.2975 61.2606L38.6395 59.6502C39.069 59.2565 39.3374 59.1313 39.4448 59.2744Z" fill="#0D131A"/>
<path d="M68.4857 64.911L70.3109 64.3205C69.452 66.6825 68.0921 68.9907 66.2311 71.2454C63.7618 74.1799 60.7557 76.5598 57.2127 78.3849C57.7853 84.1825 57.9642 88.5485 57.7495 91.4831L57.0517 92.8251L56.4075 93.684C56.658 91.7157 56.6938 88.5486 56.5149 84.1825L56.1391 78.1702C56.0675 77.9197 56.157 77.7408 56.4075 77.6334C59.6999 76.023 62.5092 73.7863 64.8354 70.9233C66.3743 69.0265 67.5911 67.0224 68.4857 64.911Z" fill="#0D131A"/>
<path d="M36.868 85.4171C39.4089 84.3076 41.574 84.7371 43.3634 86.7054C45.1886 88.7095 46.0117 91.6083 45.8327 95.4017C45.8327 95.5807 45.6538 95.6522 45.2959 95.6165C44.938 95.6165 44.7591 95.527 44.7591 95.3481C44.9023 92.2703 44.2402 89.801 42.7729 87.9401C41.3056 86.1149 39.6594 85.5244 37.8343 86.1686L37.1901 85.9002C36.8322 85.6139 36.7248 85.4528 36.868 85.4171Z" fill="#0D131A"/>
<path d="M33.9154 85.7393C34.8101 85.2025 35.7764 85.0415 36.8142 85.2562C38.3889 85.5783 39.6593 86.6161 40.6256 88.3697C41.735 90.3022 42.1823 92.7537 41.9676 95.724C41.9318 95.8672 41.7708 95.9387 41.4845 95.9387C41.1624 95.903 41.0013 95.8135 41.0013 95.6703C41.1445 93.201 40.7151 91.0895 39.713 89.336C38.8541 87.7255 37.7626 86.7951 36.4385 86.5446C34.8996 86.2225 33.7723 86.974 33.0566 88.7992C33.0208 88.9423 32.806 88.9423 32.4124 88.7992C32.0187 88.656 31.8398 88.5308 31.8756 88.4234C32.2692 87.1708 32.9492 86.2761 33.9154 85.7393Z" fill="#0D131A"/>
<path d="M28.4932 89.4969C29.3879 88.6022 30.3542 88.1548 31.392 88.1548C33.4677 88.1548 35.1676 88.8706 36.4917 90.3021C37.959 91.8767 38.5853 93.8808 38.3706 96.3144C38.3706 96.4933 38.2274 96.5828 37.9411 96.5828L37.458 96.3144C37.458 94.3818 36.8675 92.7177 35.6865 91.322C34.5055 89.9263 33.074 89.2285 31.392 89.2285C30.6405 89.2285 29.9426 89.5863 29.2985 90.3021C28.5469 91.161 28.1712 92.2704 28.1712 93.6303C28.1712 94.9544 28.6543 95.9923 29.6205 96.7438C30.6226 97.5311 31.9288 97.7638 33.5393 97.4417C32.3583 98.1574 31.6246 98.5153 31.3383 98.5153C29.9784 98.4079 28.9048 97.9069 28.1175 97.0122C27.2944 96.1175 26.8828 94.9902 26.8828 93.6303C26.8828 91.9125 27.4196 90.5347 28.4932 89.4969Z" fill="#0D131A"/>
<path d="M27.205 100.233C30.748 97.7995 35.1856 96.1712 40.5179 95.3481C45.385 94.5608 49.3574 94.6324 52.4351 95.5628C53.6161 95.8849 54.4571 96.3859 54.9581 97.0659C54.5645 97.8174 54.314 98.1037 54.2066 97.9248C53.9919 97.3522 53.294 96.9049 52.1131 96.5828C49.2501 95.7239 45.3492 95.6881 40.4106 96.4754C35.1856 97.2985 30.9269 98.7658 27.6345 100.877C27.0619 101.235 26.7219 101.307 26.6145 101.092C26.4714 100.913 26.6682 100.627 27.205 100.233Z" fill="#0D131A"/>
<path d="M42.1287 86.3297L41.4309 86.276L40.894 85.8465C42.6118 82.5541 45.2422 79.0648 48.7852 75.3787C49.4293 75.5219 49.6977 75.665 49.5904 75.8082C46.799 78.7785 44.3117 82.2857 42.1287 86.3297Z" fill="#0D131A"/>
<path d="M37.0288 86.115L36.4383 85.9003C36.0804 85.7572 35.9552 85.6319 36.0626 85.5245C39.2118 82.6973 42.8264 80.0312 46.9061 77.5261C47.0493 77.4545 47.1387 77.5797 47.1745 77.9018L47.0672 78.4923C43.1664 81.1764 39.8202 83.7173 37.0288 86.115Z" fill="#0D131A"/>
<path d="M24.4144 101.253C24.8439 98.9269 25.8459 96.6007 27.4205 94.2745C27.4921 94.1671 27.5816 94.3103 27.689 94.7039L27.7963 95.4555C26.508 97.4596 25.7206 99.4637 25.4343 101.468C25.148 103.472 25.3986 105.243 26.1859 106.782C27.2953 108.858 29.1026 109.896 31.6077 109.896L40.304 108.715C43.7754 107.927 46.0837 107.194 47.2289 106.514C49.0898 105.369 51.3623 102.452 54.0464 97.7638C56.4799 93.5051 58.0724 89.98 58.824 87.1886C59.0387 86.4013 59.2713 86.0434 59.5218 86.115C59.7366 86.2223 59.7366 86.6697 59.5218 87.457C58.7345 90.2842 57.1956 93.8271 54.9053 98.0858C52.1854 103.06 49.8056 106.174 47.7657 107.426C46.5489 108.142 44.1511 108.912 40.5724 109.735L31.6077 110.969C28.4584 110.969 26.2753 109.806 25.0586 107.48C24.1281 105.762 23.9134 103.687 24.4144 101.253Z" fill="#0D131A"/>
<path d="M61.9365 77.8481C61.4713 77.5618 61.3102 77.3292 61.4534 77.1503C61.5965 76.9714 61.9007 77.025 62.366 77.3113C65.0858 79.1723 66.4457 83.1805 66.4457 89.3359C66.4457 96.1713 64.6564 102.631 61.0776 108.715C57.32 115.121 53.0434 118.324 48.2478 118.324C45.5638 118.324 43.0945 117.483 40.8399 115.801C38.8 114.262 37.3506 112.347 36.4917 110.057C36.4559 109.914 36.5991 109.77 36.9211 109.627C37.2432 109.484 37.4222 109.484 37.458 109.627C38.2453 111.596 39.5694 113.278 41.4304 114.673C43.506 116.212 45.7785 116.982 48.2478 116.982C52.4708 116.982 56.3537 114.083 59.8966 108.285C63.4396 102.488 65.2111 96.1713 65.2111 89.3359C65.2111 83.1089 64.1196 79.2796 61.9365 77.8481Z" fill="#0D131A"/>
<path d="M58.286 111.13C58.2144 111.023 58.3397 110.88 58.6618 110.701C58.9481 110.486 59.127 110.45 59.1986 110.594C60.0933 111.989 60.5585 113.421 60.5943 114.888C60.6301 116.391 60.2006 117.697 59.3059 118.807C58.6618 119.63 57.8029 120.238 56.7292 120.632L53.9915 120.739L52.7032 119.666C52.2021 118.95 51.9337 118.037 51.8979 116.928L52.4348 116.552L52.9716 116.498C52.9716 118.181 53.4547 119.183 54.421 119.505L56.3535 119.344C57.0692 119.057 57.6955 118.574 58.2323 117.894C58.9839 116.964 59.3775 115.89 59.4133 114.673C59.4133 113.492 59.0375 112.311 58.286 111.13Z" fill="#0D131A"/>
<path d="M60.8089 107.48C60.7015 107.373 60.7731 107.194 61.0236 106.943C61.2741 106.693 61.4531 106.621 61.5604 106.728C63.0277 108.196 63.9761 109.985 64.4055 112.097C64.835 114.136 64.6739 115.801 63.9224 117.089C63.3856 117.948 62.634 118.503 61.6678 118.753L58.5543 118.646C58.4111 118.61 58.3753 118.431 58.4469 118.109C58.5543 117.751 58.6795 117.59 58.8227 117.626C60.5405 118.127 61.8109 117.697 62.634 116.337C63.2782 115.192 63.4572 113.779 63.1709 112.097C62.8488 110.271 62.0614 108.733 60.8089 107.48Z" fill="#0D131A"/>
<path d="M62.4736 103.883C62.3662 103.812 62.4199 103.669 62.6346 103.454C62.8136 103.239 62.9567 103.168 63.0641 103.239C64.424 104.205 65.4261 105.333 66.0702 106.621C66.6428 107.838 66.8218 109.037 66.607 110.218C66.285 111.792 65.3724 112.723 63.8693 113.009C63.7262 113.045 63.6009 112.902 63.4935 112.58C63.3862 112.222 63.4041 112.025 63.5472 111.989C64.5135 111.667 65.104 110.969 65.3187 109.896C65.4619 109.072 65.3366 108.16 64.9429 107.158C64.4777 105.977 63.6546 104.885 62.4736 103.883Z" fill="#0D131A"/>
<path d="M56.5154 120.095C56.5154 119.988 56.7122 119.845 57.1059 119.666L57.6427 119.612C57.0701 123.942 55.4239 127.342 52.704 129.811C50.3063 131.994 47.5149 133.086 44.3298 133.086C39.2838 133.086 35.6156 130.76 33.3252 126.107C31.1779 121.777 30.6769 116.516 31.8221 110.325C31.8579 110.182 32.0368 110.128 32.3589 110.164L32.8957 110.486C32.1084 116.785 32.7705 121.902 34.8819 125.839C37.0292 129.847 40.1964 131.851 44.3835 131.851C47.2107 131.851 49.68 130.939 51.7915 129.114C54.225 127.038 55.7996 124.032 56.5154 120.095Z" fill="#0D131A"/>
<path d="M46.6376 121.008C49.1785 120.757 51.29 120.095 52.972 119.021C53.1151 118.95 53.2762 119.057 53.4551 119.344C53.6698 119.666 53.7056 119.862 53.5625 119.934C51.7015 121.079 49.429 121.831 46.745 122.189L38.9612 121.706C35.4183 120.703 32.9847 118.843 31.6606 116.123C31.589 115.98 31.6785 115.801 31.929 115.586C32.1795 115.371 32.3405 115.317 32.4121 115.425C33.0563 116.713 34.0941 117.823 35.5256 118.753C36.6708 119.505 37.9234 120.059 39.2833 120.417C41.6095 121.097 44.0609 121.294 46.6376 121.008Z" fill="#0D131A"/>
<path d="M37.1365 130.026L37.6196 130.294C37.8701 130.581 37.9238 130.76 37.7806 130.831C33.4504 134.446 30.3906 137.684 28.6012 140.547C26.776 143.41 25.8635 146.488 25.8635 149.781C25.8635 152.286 26.4539 155.006 27.6349 157.94C28.8159 160.839 30.4621 163.684 32.5736 166.475C32.8957 166.869 32.9494 167.12 32.7346 167.227C32.5199 167.334 32.2336 167.191 31.8757 166.798C26.9013 161.322 24.4141 155.65 24.4141 149.781C24.4141 146.202 25.3445 142.945 27.2055 140.011C29.138 136.933 32.4483 133.605 37.1365 130.026Z" fill="#0D131A"/>
<path d="M46.476 136.951C47.6928 137.416 48.2117 137.685 48.0328 137.756C45.1698 139.295 42.8436 141.174 41.0543 143.393C39.2649 145.611 38.3702 147.741 38.3702 149.781C38.3702 152.071 39.0502 155.024 40.4101 158.638C41.8416 162.432 43.2552 164.811 44.6509 165.778C47.8717 167.996 49.4822 170.609 49.4822 173.615C49.4822 175.941 48.3191 177.91 45.9929 179.52C42.7363 181.739 37.4755 182.848 30.2107 182.848C22.6237 182.848 17.2735 182.133 14.16 180.701C11.0823 179.305 9.54346 176.854 9.54346 173.347C9.54346 170.806 10.295 168.766 11.7981 167.227C13.1222 165.831 14.6968 165.133 16.522 165.133C18.9913 165.133 20.7807 166.279 21.8901 168.569C22.9995 170.859 22.8027 172.953 21.2996 174.85C20.9417 175.315 20.6554 175.494 20.4407 175.387C20.1902 175.279 20.2081 174.975 20.4944 174.474C21.4964 172.72 21.5143 170.931 20.5481 169.106C19.6176 167.317 18.2756 166.422 16.522 166.422C15.1621 166.422 13.9453 166.977 12.8717 168.086C11.6191 169.41 10.9928 171.164 10.9928 173.347C10.9928 176.317 12.1559 178.375 14.4821 179.52C17.2735 180.916 22.5164 181.614 30.2107 181.614C37.0461 181.614 41.9489 180.665 44.9193 178.768C46.995 177.409 48.0328 175.691 48.0328 173.615C48.0328 171.038 46.6908 168.694 44.0067 166.583C42.3963 165.366 40.8574 162.789 39.3901 158.853C38.0302 155.131 37.3503 152.107 37.3503 149.781C37.3503 147.991 37.8871 146.184 38.9607 144.359C40.4638 141.711 42.9689 139.241 46.476 136.951Z" fill="#0D131A"/>
<path d="M30.6402 164.865L31.1233 165.133L31.2844 165.724C30.3539 166.368 28.7972 166.905 26.6141 167.334L20.4408 167.549L19.904 166.959C19.7251 166.601 19.7072 166.422 19.8503 166.422C21.7828 166.637 23.8048 166.601 25.9163 166.314C28.0993 166.028 29.674 165.545 30.6402 164.865Z" fill="#0D131A"/>
<path d="M13.8919 166.583L13.5698 167.066L12.9793 167.173C12.0847 165.921 10.7605 165.778 9.00695 166.744C7.146 167.746 6.21553 169.517 6.21553 172.058C6.21553 174.492 7.07443 176.371 8.79222 177.695C9.93742 178.625 11.2079 179.055 12.6036 178.983L13.4625 179.413C13.8561 179.699 13.9814 179.86 13.8382 179.896C11.6552 180.397 9.66901 180.003 7.87965 178.715C5.83976 177.248 4.81982 175.029 4.81982 172.058C4.81982 168.766 5.94713 166.493 8.20173 165.241C10.4205 163.988 12.3173 164.436 13.8919 166.583Z" fill="#0D131A"/>
<path d="M0.901367 171.844C0.901367 168.837 2.04656 166.636 4.33696 165.241C6.4842 163.952 8.1841 163.935 9.43666 165.187L9.22193 165.724C8.97142 165.974 8.79249 166.046 8.68512 165.939C7.86201 165.116 6.64524 165.294 5.03481 166.475C3.24544 167.728 2.35076 169.517 2.35076 171.844C2.35076 173.49 2.92335 174.957 4.06855 176.245C5.21375 177.498 6.50209 178.124 7.93359 178.124L8.79249 179.091C6.82418 179.484 5.03481 178.965 3.42438 177.534C1.74237 176.066 0.901367 174.17 0.901367 171.844Z" fill="#0D131A"/>
<path d="M64.4596 81.2836C64.4238 81.1404 64.4954 80.9615 64.6743 80.7468C64.8533 80.5321 64.9606 80.4963 64.9964 80.6394C70.0782 92.5566 72.3865 103.311 71.9213 112.902C71.456 122.385 68.3604 129.149 62.6345 133.193C61.9903 133.658 61.5787 133.784 61.3998 133.569C61.2566 133.39 61.4893 133.05 62.0976 132.549C67.2868 128.469 70.0782 121.884 70.4719 112.794C70.9013 103.74 68.8972 93.2366 64.4596 81.2836Z" fill="#0D131A"/>
<path d="M44.3832 136.199C44.4906 135.985 44.7411 135.949 45.1348 136.092C48.3556 137.309 50.646 139.259 52.0059 141.943C53.1153 144.162 54.2605 148.474 55.4415 154.88C55.9425 157.457 56.1931 160.517 56.1931 164.06C56.1573 167.173 55.9783 169.661 55.6562 171.521C55.5489 172.309 54.9584 173.579 53.8848 175.333C52.7038 177.265 51.487 178.84 50.2345 180.057L49.1072 180.325L48.3019 180.272C49.5903 179.198 50.9502 177.552 52.3817 175.333C53.5985 173.4 54.2784 172.076 54.4216 171.36C54.7437 169.392 54.9405 166.959 55.0121 164.06C55.0836 160.517 54.8868 157.511 54.4216 155.041C53.2406 148.671 52.1133 144.395 51.0397 142.212C49.7871 139.671 47.7293 137.846 44.8663 136.736C44.4727 136.593 44.3116 136.414 44.3832 136.199Z" fill="#0D131A"/>
<path d="M46.7452 181.345C48.1052 180.057 49.5545 179.413 51.0934 179.413C51.7376 179.413 52.0597 179.538 52.0597 179.788C52.0955 180.039 51.7734 180.164 51.0934 180.164C49.8766 180.164 48.6778 180.862 47.4968 182.258C46.2442 183.725 45.6179 185.3 45.6179 186.982C45.6179 188.556 46.2442 189.845 47.4968 190.847C48.7493 191.885 50.3061 192.404 52.167 192.404C53.9564 192.404 55.4595 191.759 56.6762 190.471C57.8214 189.29 58.394 187.93 58.394 186.391C58.394 185.497 58.233 184.673 57.9109 183.922C57.553 183.17 57.0878 182.616 56.5152 182.258C56.0142 181.972 55.8352 181.739 55.9784 181.56L56.9446 181.667C57.732 182.133 58.3761 182.759 58.8772 183.546C59.414 184.441 59.6824 185.389 59.6824 186.391C59.6824 188.216 58.9666 189.863 57.5351 191.33C56.0321 192.905 54.2427 193.692 52.167 193.692C49.984 193.692 48.1409 193.03 46.6379 191.706C45.099 190.417 44.3296 188.843 44.3296 186.982C44.3296 184.691 45.1348 182.813 46.7452 181.345Z" fill="#0D131A"/>
<path d="M68.3793 181.775L67.5204 180.969L68.6477 181.077C69.9719 181.614 71.0097 182.508 71.7612 183.761C72.3338 184.727 72.6201 185.658 72.6201 186.552C72.6201 188.7 71.9581 190.507 70.6339 191.974C69.3098 193.406 67.6994 194.121 65.8026 194.121C63.6196 194.121 61.866 193.406 60.5419 191.974C59.2535 190.614 58.6094 188.878 58.6094 186.767C58.6094 185.693 58.9672 184.62 59.683 183.546C60.363 182.58 61.0966 181.9 61.8839 181.506L62.6891 181.453C62.7607 181.667 62.5818 181.882 62.1523 182.097C61.6155 182.383 61.0787 182.974 60.5419 183.868C59.9693 184.87 59.683 185.837 59.683 186.767C59.683 188.485 60.2556 189.916 61.4008 191.062C62.5818 192.207 64.0491 192.779 65.8026 192.779C67.2699 192.779 68.5583 192.153 69.6677 190.9C70.8129 189.648 71.3855 188.199 71.3855 186.552C71.3855 185.765 71.1886 184.96 70.795 184.137C70.2224 183.027 69.4172 182.24 68.3793 181.775Z" fill="#0D131A"/>
<path d="M74.069 180.272C75.8584 178.769 77.7909 178.518 79.8666 179.52C82.0138 180.558 83.0875 182.526 83.0875 185.425C83.0875 187.715 82.3717 189.612 80.9402 191.115C79.6161 192.511 78.0414 193.209 76.2163 193.209C73.8185 193.209 72.0649 192.386 70.9555 190.739C70.8482 190.596 70.9019 190.292 71.1166 189.827C71.3313 189.362 71.4566 189.218 71.4923 189.397C71.7786 190.22 72.3512 190.883 73.2101 191.384C74.069 191.885 75.0711 192.135 76.2163 192.135C77.612 192.135 78.8467 191.527 79.9203 190.31C81.0655 188.986 81.6381 187.357 81.6381 185.425C81.6381 183.063 80.815 181.47 79.1687 180.647C77.6299 179.86 76.0552 179.932 74.4448 180.862L73.6396 180.969C73.5322 180.826 73.6754 180.594 74.069 180.272Z" fill="#0D131A"/>
<path d="M62.957 132.495C62.957 132.316 63.136 132.084 63.4938 131.798C63.8159 131.475 63.9949 131.386 64.0307 131.529C64.2812 142.373 65.6232 152.375 68.0567 161.537C70.4187 170.448 73.2101 176.46 76.431 179.574L75.8942 180.057L75.0353 180.164C71.7786 177.015 69.0409 171.074 66.8221 162.342C64.6033 153.61 63.3149 143.661 62.957 132.495Z" fill="#0D131A"/>
</g>
<defs>
<clipPath id="clip0_7_379">
<rect width="139.624" height="194.4" fill="white" transform="translate(0.901367)"/>
</clipPath>
</defs>
</svg>
